<?xml version="1.0"?><svg width="551.879" height="277.308" xmlns="http://www.w3.org/2000/svg">
 <title>duckling</title>

 <g>
  <title>Layer 1</title>
  <path id="svg_2" fill-rule="evenodd" fill="#408000" d="m88.991997,169.164001c1.980003,-7.848007 2.736,-17.460007 2.268005,-29.664001c-0.540001,-12.311996 -2.880005,-30.671997 -5.076004,-42.732002c-2.304001,-11.951996 -4.931999,-21.311996 -8.279999,-28.512001c4.536003,5.472 8.136002,13.104004 11.195999,23.472c2.916,10.368004 5.112,22.788002 6.588005,38.087997c2.087997,-4.895996 3.743996,-12.347992 5.399994,-23.18399c1.512001,-10.836006 2.880005,-24.372002 3.959999,-41.148003c0.288002,7.056 0.216003,14.003998 -0.215996,21.528c-0.503998,7.451996 -1.368004,15.047997 -2.592003,22.788002c-1.367996,7.703995 -3.131996,14.975998 -5.292,22.643997c0.468002,0.072006 1.835999,-2.123993 4.248001,-6.732002c2.340004,-4.751999 8.028,-15.407997 9.972,-20.879997c1.872002,-5.472 2.412003,-9.396004 1.475998,-11.772003c2.340004,-0.251999 3.456001,1.368004 3.348,4.860001c-0.18,3.492004 -1.007996,8.748001 -3.995995,15.768005c-3.024002,6.839996 -7.560005,15.335999 -13.896004,25.487991c-1.223999,3.492004 -2.411995,7.776001 -3.276001,12.853012c-0.899994,5.003998 -1.764,10.799988 -2.304001,17.388c-1.152,-0.073013 -2.339996,-0.145004 -3.528,-0.253006z" clip-rule="evenodd"/>
  <path id="svg_3" fill-rule="evenodd" fill="#A97408" d="m105.407997,75.204002c-0.792,0.395996 -1.511993,0.107994 -2.159996,-0.720001c-0.792,-0.936005 -1.764,-0.288002 -1.944,-4.860001c-0.323997,-4.788002 -0.18,-18.108002 0.720001,-22.860001c0.900002,-4.716 3.203995,-6.299999 4.571999,-5.040001c1.295998,1.224003 2.807999,7.092003 3.131996,12.312c0.072006,5.076 -1.223999,14.472004 -1.944,18.072002c-0.755997,3.491997 -1.727997,2.627998 -2.375999,3.096001z" clip-rule="evenodd"/>
  <path id="svg_4" fill-rule="evenodd" fill="#A16121" d="m104.220001,69.192001c-0.540001,-0.360001 -1.475998,-8.243999 -1.548004,-11.700001c-0.071999,-3.636002 0.216003,-9.684002 0.864006,-9.396c0.539993,0.216 1.907997,7.667999 2.159996,11.231998c0.143997,3.492001 -1.043999,10.116001 -1.475998,9.864002z" clip-rule="evenodd"/>
  <path id="svg_5" fill-rule="evenodd" fill="#5F8736" d="m93.744003,137.412003c0.035995,-0.251999 -0.036003,-6.587997 -0.756004,-13.176003c-0.863998,-6.695999 -2.375999,-19.872002 -3.708,-26.208c-1.367996,-6.372002 -3.636002,-12.636002 -3.743996,-11.447998c-0.072006,1.259995 1.979996,11.807999 3.239998,18.467995c1.115997,6.552002 2.664001,14.616005 3.528,20.160004c0.828003,5.508003 1.260002,12.168007 1.440002,12.204002z" clip-rule="evenodd"/>
  <path id="svg_6" fill-rule="evenodd" fill="#5F8736" d="m99.612,132.839996c-0.360001,1.152008 2.736,-3.815994 4.968002,-7.703995c2.015999,-3.959999 6.947998,-13.896004 7.451996,-15.228004c0.324005,-1.223999 -2.807999,3.420006 -4.931999,7.416c-2.195999,3.852005 -7.056,14.112007 -7.487999,15.515999z" clip-rule="evenodd"/>
  <path id="svg_7" fill-rule="evenodd" fill="#408000" d="m78.804001,176.436996c0.755997,-8.063995 0.035995,-17.677002 -2.160004,-29.664001c-2.375999,-12.024002 -7.343994,-30.023994 -11.304001,-41.507996c-4.067997,-11.485001 -8.027996,-20.376999 -12.419998,-26.964996c5.328003,4.68 10.008003,11.771996 14.580002,21.563995c4.463997,9.828003 8.459999,21.779999 12.132004,36.684006c1.295998,-5.040009 1.871994,-12.960007 1.871994,-23.760002c-0.107994,-11.015999 -0.827995,-24.444 -2.159996,-41.256004c1.403999,6.912003 2.304001,13.824005 2.987999,21.312004c0.575996,7.451996 0.935997,15.047997 0.792,22.931999c-0.216003,7.704002 -0.792,15.335999 -1.872002,23.184006c0.468002,0 1.548004,-2.376007 3.239998,-7.272003c1.620003,-5.040001 5.616005,-16.452003 6.732002,-22.140007c1.080002,-5.759995 0.936005,-9.575996 -0.288002,-11.843994c2.268005,-0.576004 3.672005,0.863998 4.068001,4.32c0.360001,3.491997 0.288002,8.748001 -1.619995,16.164001c-1.980003,7.343994 -5.256004,16.199997 -9.972,27.251999c-0.792,3.671997 -1.152,8.026993 -1.368004,13.21199c-0.143997,5.111008 -0.143997,10.907013 0.288002,17.532013c-1.152,0.071991 -2.340004,0.143997 -3.528,0.252991z" clip-rule="evenodd"/>
  <path id="svg_8" fill-rule="evenodd" fill="#A97408" d="m81.18,81.108002c-0.720001,0.503998 -1.475998,0.323997 -2.267998,-0.396004c-0.864006,-0.827995 -1.800003,-0.071999 -2.664001,-4.535995c-0.900002,-4.716003 -2.844002,-17.928001 -2.627998,-22.716003c0.143997,-4.823997 2.231995,-6.66 3.779999,-5.652c1.403999,1.044003 3.923996,6.624001 4.931999,11.736c0.935997,5.003998 0.863998,14.436005 0.755997,18.144005c-0.215996,3.491997 -1.223999,2.915993 -1.907997,3.419998z" clip-rule="evenodd"/>
  <path id="svg_9" fill-rule="evenodd" fill="#A16121" d="m79.092003,75.311996c-0.684006,-0.359993 -2.556,-7.848 -3.240005,-11.339996c-0.647995,-3.599998 -1.152,-9.612 -0.540001,-9.431999c0.540001,0.216 3.096001,7.236 3.780006,10.799995c0.612,3.528 0.467995,10.044006 0,9.972z" clip-rule="evenodd"/>
  <path id="svg_10" fill-rule="evenodd" fill="#5F8736" d="m78.804001,144.360001c-0.071999,-0.287994 -0.972,-6.552002 -2.700005,-12.960007c-1.835999,-6.479996 -5.363998,-19.331993 -7.523994,-25.343994c-2.268005,-6.120003 -5.508003,-11.987999 -5.400002,-10.800003c0.107998,1.152 3.708,11.484001 5.940002,17.82c2.087997,6.228004 4.715996,14.040001 6.479996,19.403999c1.584,5.220001 3.024002,11.952011 3.204002,11.880005z" clip-rule="evenodd"/>
  <path id="svg_11" fill-rule="evenodd" fill="#5F8736" d="m83.952003,138.960007c-0.216003,1.26001 2.159996,-4.248001 3.779999,-8.35199c1.403999,-4.248009 4.860001,-14.832008 5.112,-16.200005c0.108002,-1.368004 -2.268005,3.923996 -3.779999,8.099998c-1.512001,4.175987 -4.931999,14.939987 -5.112,16.451996z" clip-rule="evenodd"/>
  <path id="svg_12" fill-rule="evenodd" fill="#408000" d="m352.764008,183.240005c2.59201,-10.187988 3.527008,-22.932999 2.953003,-38.80899c-0.64801,-16.09201 -3.781006,-40.248009 -6.625,-55.943008c-3.02301,-15.695999 -6.442993,-27.899998 -10.835999,-37.295998c5.938995,7.092003 10.729004,17.243988 14.652008,30.743988s6.694977,29.916016 8.604004,49.824013c2.663971,-6.300003 4.968994,-16.272003 7.056976,-30.348c2.016022,-14.220001 3.744019,-31.788002 5.184021,-53.82c0.431976,9.144001 0.286987,18.431999 -0.289001,28.152c-0.645996,9.755997 -1.72702,19.692001 -3.382996,29.807999c-1.69101,10.043999 -4.104004,19.655998 -6.949005,29.663994c0.612976,0.072006 2.483978,-2.771988 5.617004,-8.819992c3.167999,-6.155998 10.366974,-20.160004 12.995972,-27.288002c2.447021,-7.199997 3.096008,-12.239998 1.943024,-15.407997c3.02298,-0.216003 4.536987,1.764 4.393005,6.335999c-0.180023,4.463997 -1.404022,11.519997 -5.221008,20.627998c-4.031006,9.108002 -9.863007,19.944008 -18.179993,33.336006c-1.729004,4.608002 -3.02301,10.223999 -4.28302,16.847992c-1.259979,6.695999 -2.231995,14.040009 -3.061005,22.716995c-1.511993,-0.109009 -3.02301,-0.216995 -4.571991,-0.324997z" clip-rule="evenodd"/>
  <path id="svg_13" fill-rule="evenodd" fill="#A97408" d="m374.256012,60.299999c-1.080017,0.540001 -1.942993,0.18 -2.881012,-0.936001c-0.970978,-1.295998 -2.22998,-0.323997 -2.519989,-6.371998c-0.286987,-6.264 -0.252014,-23.724001 0.936005,-29.880001c1.188995,-6.119999 4.212982,-8.28 6.014008,-6.623999c1.72699,1.511999 3.741974,9.431999 4.103973,16.128c0.215027,6.731998 -1.655975,18.827999 -2.556976,23.652c-0.936035,4.5 -2.196014,3.528 -3.096008,4.031998z" clip-rule="evenodd"/>
  <path id="svg_14" fill-rule="evenodd" fill="#A16121" d="m372.671997,52.416c-0.68399,-0.612 -1.90799,-10.512001 -2.015991,-15.264c-0.179993,-4.716 0.432007,-12.672001 1.152008,-12.348c0.645996,0.396 2.59198,9.972 2.770996,14.688c0.145996,4.607998 -1.331024,13.175999 -1.907013,12.924z" clip-rule="evenodd"/>
  <path id="svg_15" fill-rule="evenodd" fill="#5F8736" d="m358.954987,141.695999c0.182007,-0.251999 -0.143005,-8.639999 -0.971008,-17.243996c-1.116974,-8.676003 -3.204987,-26.064003 -4.860992,-34.272003c-1.653992,-8.316002 -4.859009,-16.559998 -4.894989,-15.012001c-0.072021,1.548004 2.626984,15.624001 4.210999,24.192001c1.511993,8.531998 3.38501,19.115997 4.644989,26.351997c1.080017,7.019997 1.656006,16.092003 1.871002,15.984001z" clip-rule="evenodd"/>
  <path id="svg_16" fill-rule="evenodd" fill="#5F8736" d="m366.622986,135.720001c-0.610992,1.548004 3.781006,-5.003998 6.518005,-10.080002c2.807007,-5.148003 9.070007,-18.18 9.756012,-19.944c0.431976,-1.692001 -3.709015,4.608002 -6.445007,9.720001c-2.880005,5.075996 -9.216003,18.468002 -9.82901,20.304001z" clip-rule="evenodd"/>
  <path id="svg_17" fill-rule="evenodd" fill="#408000" d="m364.824005,189.899994c2.627014,-12.20401 8.278992,-26.31601 17.386993,-42.911987c9,-16.740005 25.235992,-41.004013 36.64801,-56.124016c11.449005,-15.192001 21.600006,-26.243988 31.285004,-33.984001c-10.152008,4.464001 -20.59201,12.599998 -31.896027,24.984001c-11.339996,12.311996 -23.003998,28.295998 -35.530975,48.527992c0.46698,-8.099991 3.274994,-19.979996 8.565979,-36.071991c5.256012,-16.200005 12.854004,-35.856003 22.934021,-60.084003c-5.36499,9.540001 -10.080017,19.404003 -14.580017,30.132c-4.5,10.620003 -8.784973,21.996002 -12.167999,33.588013c-3.457001,11.556 -6.229004,23.112 -8.315979,35.243996c-0.79303,-0.287994 -1.225006,-4.21199 -1.297028,-12.348c-0.214996,-8.243996 -0.539001,-27.035995 0.576019,-35.964005c1.044983,-8.963989 3.167999,-14.687996 6.083984,-17.459991c-3.130981,-1.872002 -5.867004,-0.431999 -8.063995,4.463997c-2.339996,4.860001 -4.714996,12.959999 -5.328003,24.732002c-0.645996,11.772003 -0.070007,26.496002 1.729004,45.144997c-0.721008,5.831009 -2.160004,12.419998 -4.320007,20.195007c-2.22998,7.667999 -5.110992,16.235992 -8.78299,25.848999c1.688995,0.682999 3.381012,1.366989 5.074005,2.08699z" clip-rule="evenodd"/>
  <path id="svg_18" fill-rule="evenodd" fill="#A97408" d="m406.942993,47.52c0.792999,1.007999 1.835999,1.368 3.528992,0.540001c1.546997,-0.864002 2.664001,0.827999 6.119019,-5.472c3.491974,-6.444 12.671997,-25.200001 14.759979,-32.364001c1.873016,-7.2 -0.251984,-10.98 -2.878998,-10.224c-2.735992,0.9 -9.109009,7.956 -12.889008,15.048c-3.960999,7.091999 -8.35199,20.843998 -9.827972,26.532001c-1.403015,5.399998 0.287994,4.787998 1.187988,5.939999z" clip-rule="evenodd"/>
  <path id="svg_19" fill-rule="evenodd" fill="#A16121" d="m412.812988,39.959999c0.89801,-0.251999 7.488007,-10.331999 10.187988,-15.227999c2.52002,-4.968 6.19101,-13.752001 5.328003,-13.716001c-0.972992,0.108 -8.171997,9.179999 -10.763977,14.148c-2.737,4.788 -5.618011,14.76 -4.752014,14.796z" clip-rule="evenodd"/>
  <path id="svg_20" fill-rule="evenodd" fill="#5F8736" d="m380.160004,142.343994c-0.071991,-0.359009 4.571991,-9.28801 10.187988,-17.892006c5.688019,-8.748001 17.027008,-26.028 23.328003,-33.911987c6.084015,-7.992004 13.752014,-15.048012 13.140991,-13.392014c-0.827972,1.656013 -11.231995,15.228004 -17.315979,23.508003c-6.156006,8.208 -13.932007,18.612 -18.863007,25.667999c-4.934998,6.984009 -10.515015,16.164017 -10.477997,16.020004z" clip-rule="evenodd"/>
  <path id="svg_21" fill-rule="evenodd" fill="#5F8736" d="m375.156006,131.904007c-0.432007,2.052002 -1.332001,-7.487999 -1.583984,-14.183998c-0.252014,-6.947998 -0.252014,-24.227997 0.144989,-26.423996c0.214996,-2.016006 1.438995,6.839996 1.72699,13.787994c0.144012,6.803993 -0.001007,24.623985 -0.287994,26.82z" clip-rule="evenodd"/>
  <path id="svg_22" fill-rule="evenodd" fill="#408000" d="m339.442993,192.779999c1.044983,-10.477005 0.109009,-23.184998 -2.807007,-38.809006c-3.061005,-15.659988 -9.575989,-39.383995 -14.832001,-54.358994c-5.221008,-15.012001 -10.583984,-26.676003 -16.235992,-35.279999c6.875,6.192001 13.175995,15.407997 19.042999,28.223999c5.796997,12.779999 11.088013,28.584 15.876984,47.988007c1.656006,-6.624008 2.484009,-16.776009 2.484009,-31.032005c-0.109009,-14.363998 -1.044983,-32.040001 -2.80899,-54c1.69101,9 3.02301,18.108002 3.85199,27.863998c0.756012,9.720001 1.296997,19.764 1.080017,29.987999c-0.252014,10.080002 -1.080017,20.052002 -2.484009,30.348007c0.64801,0.035995 2.015991,-3.132004 4.247986,-9.504013c2.232025,-6.58799 7.309021,-21.419991 8.820007,-28.943993c1.367004,-7.416 1.296997,-12.636002 -0.359009,-15.515999c2.988007,-0.756004 4.752014,1.115997 5.291016,5.615997c0.468994,4.571999 0.360992,11.592003 -2.123016,21.204002c-2.59198,9.540001 -6.804993,21.239998 -13.03299,35.639992c-0.971008,4.860001 -1.511993,10.477005 -1.764008,17.280014c-0.251984,6.695999 -0.144989,14.291992 0.324005,22.931992c-1.510986,0.108002 -3.02298,0.216003 -4.571991,0.360001z" clip-rule="evenodd"/>
  <path id="svg_23" fill-rule="evenodd" fill="#A97408" d="m342.539001,68.003998c-0.89801,0.684006 -1.942993,0.468002 -2.985992,-0.503998c-1.188995,-1.152 -2.34201,-0.036003 -3.457001,-5.939999c-1.188019,-6.084 -3.779022,-23.436001 -3.455017,-29.700001c0.287018,-6.336 2.951019,-8.676001 4.932007,-7.416c1.90799,1.296 5.075989,8.675999 6.442993,15.335999c1.115021,6.48 1.26001,18.936001 1.007996,23.760002c-0.359985,4.715996 -1.511993,3.708 -2.484985,4.463997z" clip-rule="evenodd"/>
  <path id="svg_24" fill-rule="evenodd" fill="#A16121" d="m339.804993,60.444c-0.792999,-0.360001 -3.457001,-10.296001 -4.248016,-14.832001c-0.899994,-4.571999 -1.403992,-12.672001 -0.685974,-12.348c0.720978,0.324001 4.03299,9.431999 4.93399,14.112c0.791016,4.428001 0.610992,13.32 0,13.068001z" clip-rule="evenodd"/>
  <path id="svg_25" fill-rule="evenodd" fill="#5F8736" d="m339.442993,150.768997c0.036987,-0.32399 -1.332001,-8.604004 -3.527008,-16.919998c-2.304993,-8.531998 -7.09198,-25.236 -9.899994,-33.192001c-2.916016,-7.956001 -7.164001,-15.624001 -7.057007,-14.112c0.037018,1.655998 5.041016,14.976006 7.777008,23.292c2.699005,8.135994 6.264008,18.50399 8.458984,25.416008c1.981018,6.946991 4.176025,15.550995 4.248016,15.515991z" clip-rule="evenodd"/>
  <path id="svg_26" fill-rule="evenodd" fill="#5F8736" d="m346.140991,143.712006c-0.252014,1.62001 2.878998,-5.543991 4.932007,-10.944c2.015991,-5.507996 6.298981,-19.367996 6.731995,-21.167992c0.214996,-1.800003 -3.061005,5.147995 -4.968994,10.584c-1.980988,5.363983 -6.480988,19.619987 -6.695007,21.527992z" clip-rule="evenodd"/>
  <path id="svg_27" fill-rule="evenodd" fill="#0080FF" d="m63.144001,167.292007l0,5.977005l-63.144001,0c1.764,-0.072006 4.248,-0.647995 7.308,-1.332001c3.168,-0.792007 7.344,-1.296997 10.98,-3.313004c3.455999,-2.304001 7.128,-5.399994 9.612,-9.287994c2.268,-3.852005 2.592001,-9.576004 4.320002,-13.283997c1.548,-3.779007 3.059998,-6.731003 5.652,-9c2.591999,-2.484009 6.191998,-4.968002 9.972,-4.968002c3.707996,-0.036011 7.559998,1.619995 11.952,4.968002c-5.760002,-0.576004 -10.008003,0.143997 -13.284,2.015991c-3.312,1.979004 -5.076,5.076004 -5.976002,9.287994c-0.863998,3.924011 -1.512001,11.340012 0.684002,14.615005c2.087997,3.132996 8.208,3.889008 11.952,4.645004c3.672001,0.68399 6.947998,0.575989 9.972,-0.324005z" clip-rule="evenodd"/>
  <path id="svg_28" fill-rule="evenodd" fill="#0080FF" d="m106.344002,167.292007l0,5.977005l-63.144001,0c1.764,-0.072006 4.248001,-0.647995 7.307999,-1.332001c3.167999,-0.792007 7.344002,-1.296997 10.98,-3.313004c3.456001,-2.304001 7.127998,-5.399994 9.612,-9.287994c2.267998,-3.852005 2.592003,-9.576004 4.32,-13.283997c1.548004,-3.779007 3.060005,-6.731003 5.652,-9c2.592003,-2.484009 6.192001,-4.968002 9.972,-4.968002c3.708,-0.036011 7.559998,1.619995 11.952003,4.968002c-5.760002,-0.576004 -10.008003,0.143997 -13.284004,2.015991c-3.311996,1.979004 -5.075996,5.076004 -5.975998,9.287994c-1.008003,3.924011 -1.440002,11.340012 0.648003,14.615005c2.015999,3.132996 8.279999,3.889008 11.987999,4.645004c3.671997,0.68399 6.947998,0.575989 9.972,-0.324005z" clip-rule="evenodd"/>
  <path id="svg_29" fill-rule="evenodd" fill="#0080FF" d="m150.227997,167.292007l0,5.977005l-63.107994,0c1.871994,-0.072006 4.211998,-0.647995 7.307999,-1.332001c3.096001,-0.792007 7.344002,-1.296997 10.944,-3.313004c3.528,-2.304001 7.164001,-5.399994 9.647995,-9.287994c2.268005,-3.852005 2.592003,-9.576004 4.32,-13.283997c1.548004,-3.779007 3.060005,-6.731003 5.652,-9c2.592003,-2.484009 6.192009,-4.968002 9.972008,-4.968002c3.707993,-0.036011 7.559998,1.619995 11.951996,4.968002c-5.759995,-0.576004 -10.007996,0.143997 -13.283997,2.015991c-3.311996,1.979004 -5.076004,5.076004 -5.976006,9.287994c-1.007996,3.924011 -1.439995,11.340012 0.648003,14.615005c2.087997,3.132996 8.207993,3.889008 11.951996,4.645004c3.671997,0.68399 6.947998,0.575989 9.972,-0.324005z" clip-rule="evenodd"/>
  <path id="svg_30" fill-rule="evenodd" fill="#0080FF" d="m194.147995,167.292007l0,5.977005l-63.144012,0c1.764008,-0.072006 4.248001,-0.647995 7.308014,-1.332001c3.167999,-0.792007 7.343994,-1.296997 10.979996,-3.313004c3.528,-2.304001 7.164001,-5.399994 9.647995,-9.287994c2.268005,-3.852005 2.591995,-9.576004 4.320007,-13.283997c1.584,-3.779007 2.951996,-6.731003 5.615997,-9c2.591995,-2.484009 6.192001,-4.968002 9.972,-4.968002c3.636002,-0.036011 7.632004,1.619995 11.987991,4.968002c-5.687988,-0.576004 -10.079987,0.143997 -13.319992,2.015991c-3.311996,1.979004 -5.076004,5.076004 -5.975998,9.287994c-0.863998,3.924011 -1.512009,11.340012 0.68399,14.615005c2.088013,3.132996 8.208008,3.889008 11.952011,4.645004c3.672012,0.68399 6.947998,0.575989 9.972,-0.324005z" clip-rule="evenodd"/>
  <path id="svg_31" fill-rule="evenodd" fill="#0080FF" d="m238.067993,167.292007l0,5.977005l-63.143997,0c1.763992,-0.072006 4.248001,-0.647995 7.307999,-1.332001c3.167999,-0.792007 7.343994,-1.296997 10.979996,-3.313004c3.455994,-2.304001 7.128006,-5.399994 9.612,-9.287994c2.268005,-3.852005 2.591995,-9.576004 4.320007,-13.283997c1.547989,-3.779007 3.059998,-6.731003 5.651993,-9c2.591995,-2.484009 6.192001,-4.968002 9.972,-4.968002c3.707993,-0.036011 7.559998,1.619995 11.951996,4.968002c-5.759995,-0.576004 -10.007996,0.143997 -13.283997,2.015991c-3.311996,1.979004 -5.076004,5.076004 -5.975998,9.287994c-1.007996,3.924011 -1.440002,11.340012 0.647995,14.615005c2.016006,3.132996 8.279999,3.889008 11.988007,4.645004c3.672012,0.68399 6.948013,0.575989 9.972,-0.324005z" clip-rule="evenodd"/>
  <path id="svg_32" fill-rule="evenodd" fill="#0080FF" d="m281.950989,167.292007l0,5.977005l-63.106995,0c1.871994,-0.072006 4.21199,-0.647995 7.307999,-1.332001c3.095993,-0.792007 7.343994,-1.296997 10.944,-3.313004c3.528,-2.304001 7.164001,-5.399994 9.647995,-9.287994c2.268005,-3.852005 2.591995,-9.576004 4.320007,-13.283997c1.547989,-3.779007 3.059998,-6.731003 5.652008,-9c2.59198,-2.484009 6.191986,-4.968002 9.971985,-4.968002c3.708008,-0.036011 7.559998,1.619995 11.953003,4.968002c-5.760986,-0.576004 -10.009003,0.143997 -13.285004,2.015991c-3.312012,1.979004 -5.075989,5.076004 -5.975983,9.287994c-1.008026,3.924011 -1.440002,11.340012 0.64798,14.615005c2.088013,3.132996 8.208008,3.889008 11.951996,4.645004c3.672028,0.68399 6.948029,0.575989 9.971008,-0.324005z" clip-rule="evenodd"/>
  <path id="svg_33" fill-rule="evenodd" fill="#0080FF" d="m325.871002,167.292007l0,5.977005l-63.143005,0c1.764008,-0.072006 4.248016,-0.647995 7.308014,-1.332001c3.167999,-0.792007 7.342987,-1.296997 10.97998,-3.313004c3.527008,-2.304001 7.164001,-5.399994 9.64801,-9.287994c2.268005,-3.852005 2.59201,-9.576004 4.320007,-13.283997c1.546997,-3.779007 3.05899,-6.731003 5.651978,-9c2.627014,-2.484009 6.119019,-4.968002 9.936005,-4.968002c3.707001,-0.036011 7.52301,1.619995 11.988007,4.968002c-5.76001,-0.576004 -10.007996,0.143997 -13.285004,2.015991c-3.274994,1.979004 -5.14798,5.076004 -6.011993,9.287994c-0.863007,3.924011 -1.511993,11.340012 0.68399,14.615005c2.088013,3.132996 8.209015,3.889008 11.953003,4.645004c3.671997,0.68399 6.947998,0.575989 9.971008,-0.324005z" clip-rule="evenodd"/>
  <path id="svg_34" fill-rule="evenodd" fill="#0080FF" d="m369.790985,167.292007l0,5.977005l-63.143005,0c1.764008,-0.072006 4.247986,-0.647995 7.307007,-1.332001c3.167999,-0.792007 7.346008,-1.296997 10.97998,-3.313004c3.457001,-2.304001 7.128998,-5.399994 9.611023,-9.287994c2.269989,-3.852005 2.593994,-9.576004 4.319977,-13.283997c1.549011,-3.779007 3.061005,-6.731003 5.652008,-9c2.59201,-2.484009 6.19101,-4.968002 9.972992,-4.968002c3.707001,-0.036011 7.561005,1.619995 11.951019,4.968002c-5.76001,-0.576004 -10.007996,0.143997 -13.28302,2.015991c-3.312988,1.979004 -5.075989,5.076004 -5.97699,9.287994c-1.007996,3.924011 -1.438995,11.340012 0.64801,14.615005c2.015991,3.132996 8.278992,3.889008 11.988007,4.645004c3.674011,0.68399 6.950012,0.575989 9.972992,-0.324005z" clip-rule="evenodd"/>
  <path id="svg_35" fill-rule="evenodd" fill="#0080FF" d="m413.675995,167.292007l0,5.977005l-63.106995,0c1.871002,-0.072006 4.210999,-0.647995 7.307007,-1.332001c3.097992,-0.792007 7.345978,-1.296997 10.945007,-3.313004c3.526978,-2.304001 7.163971,-5.399994 9.64798,-9.287994c2.268005,-3.852005 2.59201,-9.576004 4.317993,-13.283997c1.549011,-3.779007 3.061005,-6.731003 5.652008,-9c2.59201,-2.484009 6.19101,-4.968002 9.972992,-4.968002c3.707001,-0.036011 7.561005,1.619995 11.951019,4.968002c-5.76001,-0.576004 -10.007996,0.143997 -13.28302,2.015991c-3.312988,1.979004 -5.075989,5.076004 -5.97699,9.287994c-1.007996,3.924011 -1.438995,11.340012 0.64801,14.615005c2.087982,3.132996 8.207001,3.889008 11.950989,4.645004c3.673004,0.68399 6.950012,0.575989 9.973999,-0.324005z" clip-rule="evenodd"/>
  <path id="svg_36" fill-rule="evenodd" fill="#0080FF" d="m457.596008,167.292007l0,5.977005l-63.144989,0c1.765991,-0.072006 4.247986,-0.647995 7.30899,-1.332001c3.167999,-0.792007 7.343994,-1.296997 10.980011,-3.313004c3.526978,-2.304001 7.164001,-5.399994 9.64798,-9.287994c2.268005,-3.852005 2.59201,-9.576004 4.318024,-13.283997c1.548981,-3.779007 3.060974,-6.731003 5.651978,-9c2.628998,-2.484009 6.121002,-4.968002 9.936005,-4.968002c3.709015,-0.036011 7.524994,1.619995 11.988007,4.968002c-5.76001,-0.576004 -10.007996,0.143997 -13.28299,2.015991c-3.275024,1.979004 -5.14801,5.076004 -6.012024,9.287994c-0.86499,3.924011 -1.511993,11.340012 0.684021,14.615005c2.087982,3.132996 8.207001,3.889008 11.950989,4.645004c3.673004,0.68399 6.949982,0.575989 9.973999,-0.324005z" clip-rule="evenodd"/>
  <path id="svg_37" fill-rule="evenodd" fill="#0080FF" d="m501.515991,167.292007l0,5.977005l-63.144989,0c1.765991,-0.072006 4.247986,-0.647995 7.30899,-1.332001c3.167999,-0.792007 7.343994,-1.296997 10.980011,-3.313004c3.454987,-2.304001 7.126984,-5.399994 9.610992,-9.287994c2.268005,-3.852005 2.59198,-9.576004 4.320007,-13.283997c1.548981,-3.779007 3.060974,-6.731003 5.651978,-9c2.59201,-2.484009 6.19101,-4.968002 9.971008,-4.968002c3.709015,-0.036011 7.561005,1.619995 11.953003,4.968002c-5.76001,-0.576004 -10.007996,0.143997 -13.28299,2.015991c-3.313019,1.979004 -5.076019,5.076004 -5.97702,9.287994c-0.86499,3.924011 -1.511993,11.340012 0.684021,14.615005c2.087982,3.132996 8.207001,3.889008 11.950989,4.645004c3.673004,0.68399 6.950012,0.575989 9.973999,-0.324005z" clip-rule="evenodd"/>
  <path id="svg_38" fill-rule="evenodd" fill="#0080FF" d="m545.400024,173.268997l-63.109009,0c1.873016,-0.071991 4.213013,-0.647995 7.30899,-1.332001c3.096008,-0.791992 7.344025,-1.296997 10.943024,-3.313004c3.528992,-2.303986 7.164001,-5.399994 9.64798,-9.287994c2.268036,-3.852005 2.59201,-9.576004 4.320038,-13.283997c1.54895,-3.779007 3.060974,-6.731003 5.651978,-9c2.59198,-2.484009 6.190979,-4.968002 9.973022,-4.968002c3.70697,-0.035995 7.55896,1.619995 11.950989,4.968002c-5.76001,-0.576004 -10.007996,0.143997 -13.28302,2.015991c-3.312988,1.979004 -5.075989,5.076004 -5.97699,9.28801c-1.007996,3.923996 -1.439026,11.339996 0.64801,14.61499c2.088013,3.133011 8.20697,2.916 11.950989,4.645004c3.67395,1.692001 6.948975,3.529007 9.973999,5.653z" clip-rule="evenodd"/>
  <path id="svg_39" fill-rule="evenodd" fill="#000080" d="m64.980003,169.128006l0,6.012009l-63.144003,0c1.764,-0.143997 4.248,-0.540009 7.308,-1.332001c3.168,-0.755997 7.344001,-1.403 10.98,-3.348007c3.528,-2.304001 7.164,-5.399994 9.647999,-9.287994c2.268002,-3.852005 2.591999,-9.576004 4.32,-13.283997c1.548,-3.815002 3.060001,-6.659012 5.652,-8.964005c2.628002,-2.484009 6.119999,-4.932007 9.936001,-5.003998c3.708,0.035995 7.523998,1.655991 11.987999,5.003998c-5.759998,-0.540009 -10.007999,0.072006 -13.284,1.979996c-3.275997,1.979004 -5.147999,5.076004 -6.011997,9.28801c-0.864002,3.923996 -1.512001,11.339996 0.683998,14.61499c2.088001,3.097 8.208,3.960999 11.952,4.681c3.672001,0.68399 6.948002,0.612 9.972004,-0.360001z" clip-rule="evenodd"/>
  <path id="svg_40" fill-rule="evenodd" fill="#000080" d="m108.18,169.128006l0,6.012009l-63.144001,0c1.764,-0.143997 4.248001,-0.540009 7.308002,-1.332001c3.167999,-0.755997 7.343998,-1.403 10.98,-3.348007c3.455997,-2.304001 7.128002,-5.399994 9.611996,-9.287994c2.268005,-3.852005 2.592003,-9.576004 4.32,-13.283997c1.548004,-3.815002 3.060005,-6.659012 5.652,-8.964005c2.592003,-2.484009 6.192001,-4.932007 9.972,-5.003998c3.708,0.035995 7.560005,1.655991 11.952003,5.003998c-5.760002,-0.540009 -10.008003,0.072006 -13.284004,1.979996c-3.311996,1.979004 -5.075996,5.076004 -5.975998,9.28801c-0.863998,3.923996 -1.512001,11.339996 0.683998,14.61499c2.088005,3.097 8.208,3.960999 11.952003,4.681c3.671997,0.68399 6.947998,0.612 9.972,-0.360001z" clip-rule="evenodd"/>
  <path id="svg_41" fill-rule="evenodd" fill="#000080" d="m152.063995,169.128006l0,6.012009l-63.107994,0c1.872002,-0.143997 4.211998,-0.540009 7.307999,-1.332001c3.096001,-0.755997 7.344002,-1.403 10.944,-3.348007c3.528,-2.304001 7.164001,-5.399994 9.648003,-9.287994c2.267998,-3.852005 2.591995,-9.576004 4.32,-13.283997c1.547997,-3.815002 3.059998,-6.659012 5.652,-8.964005c2.591995,-2.484009 6.192001,-4.932007 9.972,-5.003998c3.707993,0.035995 7.559998,1.655991 11.951996,5.003998c-5.759995,-0.540009 -10.007996,0.072006 -13.283997,1.979996c-3.311996,1.979004 -5.076004,5.076004 -5.975998,9.28801c-1.008011,3.923996 -1.440002,11.339996 0.647995,14.61499c2.124008,3.097 8.244003,3.960999 11.988007,4.681c3.707993,0.68399 6.875992,0.612 9.935989,-0.360001z" clip-rule="evenodd"/>
  <path id="svg_42" fill-rule="evenodd" fill="#000080" d="m195.983994,169.128006l0,6.012009l-63.108002,0c1.871994,-0.143997 4.212006,-0.540009 7.307999,-1.332001c3.095993,-0.755997 7.343994,-1.403 10.944,-3.348007c3.528,-2.304001 7.164001,-5.399994 9.647995,-9.287994c2.268005,-3.852005 2.59201,-9.576004 4.320007,-13.283997c1.548004,-3.815002 3.059998,-6.659012 5.651993,-8.964005c2.59201,-2.484009 6.192001,-4.932007 9.972,-5.003998c3.708008,0.035995 7.559998,1.655991 11.952011,5.003998c-5.76001,-0.540009 -10.008011,0.072006 -13.284012,1.979996c-3.276001,1.979004 -5.147995,5.076004 -6.011993,9.28801c-0.863998,3.923996 -1.512009,11.339996 0.684006,14.61499c2.087997,3.097 8.207993,3.960999 11.951996,4.681c3.672012,0.68399 6.948013,0.612 9.972,-0.360001z" clip-rule="evenodd"/>
  <path id="svg_43" fill-rule="evenodd" fill="#000080" d="m239.904007,169.128006l0,6.012009l-63.144012,0c1.763992,-0.143997 4.248001,-0.540009 7.307999,-1.332001c3.167999,-0.755997 7.343994,-1.403 10.979996,-3.348007c3.455994,-2.304001 7.128006,-5.399994 9.612,-9.287994c2.268005,-3.852005 2.591995,-9.576004 4.320007,-13.283997c1.547989,-3.815002 3.059998,-6.659012 5.651993,-8.964005c2.591995,-2.484009 6.192001,-4.932007 9.972,-5.003998c3.636002,0.035995 7.632004,1.655991 11.988007,5.003998c-5.688004,-0.540009 -10.080002,0.072006 -13.319992,1.979996c-3.311996,1.979004 -5.076019,5.076004 -5.975998,9.28801c-0.863998,3.923996 -1.512009,11.339996 0.68399,14.61499c2.087997,3.097 8.208008,3.960999 11.951996,4.681c3.672012,0.68399 6.948013,0.612 9.972015,-0.360001z" clip-rule="evenodd"/>
  <path id="svg_44" fill-rule="evenodd" fill="#000080" d="m283.824005,169.128006l0,6.012009l-63.144012,0c1.763992,-0.143997 4.248001,-0.540009 7.307999,-1.332001c3.167999,-0.755997 7.343994,-1.403 10.979996,-3.348007c3.456009,-2.304001 7.128006,-5.399994 9.612,-9.287994c2.268005,-3.852005 2.59201,-9.576004 4.320007,-13.283997c1.547989,-3.815002 3.059998,-6.659012 5.652008,-8.964005c2.59198,-2.484009 6.191986,-4.932007 9.971985,-5.003998c3.708008,0.035995 7.559998,1.655991 11.953003,5.003998c-5.760986,-0.540009 -10.009003,0.072006 -13.285004,1.979996c-3.311981,1.979004 -5.075989,5.076004 -5.975983,9.28801c-1.008026,3.923996 -1.440002,11.339996 0.64798,14.61499c2.016022,3.097 8.279999,3.960999 11.988007,4.681c3.671021,0.68399 6.949005,0.612 9.972015,-0.360001z" clip-rule="evenodd"/>
  <path id="svg_45" fill-rule="evenodd" fill="#000080" d="m327.707001,169.128006l0,6.012009l-63.106995,0l0,0c1.872009,-0.143997 4.212006,-0.540009 7.308014,-1.332001c3.095978,-0.755997 7.343994,-1.403 10.944,-3.348007c3.526978,-2.304001 7.164001,-5.399994 9.64798,-9.287994c2.268005,-3.852005 2.59201,-9.576004 4.320007,-13.283997c1.546997,-3.815002 3.05899,-6.659012 5.652008,-8.964005c2.59198,-2.484009 6.19101,-4.932007 9.971008,-5.003998c3.708984,0.035995 7.560974,1.655991 11.952972,5.003998c-5.759979,-0.540009 -10.007996,0.072006 -13.284973,1.979996c-3.311005,1.979004 -5.076019,5.076004 -5.975006,9.28801c-1.01001,3.923996 -1.44101,11.339996 0.645996,14.61499c2.087982,3.097 8.208984,3.960999 11.953003,4.681c3.672974,0.68399 6.948975,0.612 9.971985,-0.360001z" clip-rule="evenodd"/>
  <path id="svg_46" fill-rule="evenodd" fill="#000080" d="m371.627014,169.128006l0,6.012009l-63.143005,0c1.764008,-0.143997 4.248016,-0.540009 7.307007,-1.332001c3.167999,-0.755997 7.346008,-1.403 10.97998,-3.348007c3.529022,-2.304001 7.164001,-5.399994 9.64801,-9.287994c2.268005,-3.852005 2.59201,-9.576004 4.320007,-13.283997c1.583984,-3.815002 2.950989,-6.659012 5.61499,-8.964005c2.59201,-2.484009 6.19101,-4.932007 9.972992,-5.003998c3.63501,0.035995 7.631012,1.655991 11.988007,5.003998c-5.688995,-0.540009 -10.079987,0.072006 -13.320007,1.979996c-3.312988,1.979004 -5.075989,5.076004 -5.97699,9.28801c-0.863007,3.923996 -1.511993,11.339996 0.68399,14.61499c2.088013,3.097 8.209015,3.960999 11.953003,4.681c3.673004,0.68399 6.949005,0.612 9.972015,-0.360001z" clip-rule="evenodd"/>
  <path id="svg_47" fill-rule="evenodd" fill="#000080" d="m415.546997,169.128006l0,6.012009l-63.143005,0c1.764008,-0.143997 4.248016,-0.540009 7.307007,-1.332001c3.167999,-0.755997 7.346008,-1.403 10.980011,-3.348007c3.457001,-2.304001 7.128998,-5.399994 9.612976,-9.287994c2.268005,-3.852005 2.59201,-9.576004 4.317993,-13.283997c1.549011,-3.815002 3.061035,-6.659012 5.652008,-8.964005c2.59201,-2.484009 6.192993,-4.932007 9.972992,-5.003998c3.707001,0.035995 7.561005,1.655991 11.951019,5.003998c-5.76001,-0.540009 -10.007996,0.072006 -13.28302,1.979996c-3.312988,1.979004 -5.075989,5.076004 -5.97699,9.28801c-1.007996,3.923996 -1.438995,11.339996 0.64801,14.61499c2.015991,3.097 8.278992,3.960999 11.988007,4.681c3.673981,0.68399 6.949005,0.612 9.972992,-0.360001z" clip-rule="evenodd"/>
  <path id="svg_48" fill-rule="evenodd" fill="#000080" d="m459.432007,169.128006l0,6.012009l-63.106995,0c1.871002,-0.143997 4.210999,-0.540009 7.307007,-1.332001c3.097992,-0.755997 7.345978,-1.403 10.944977,-3.348007c3.527008,-2.304001 7.164001,-5.399994 9.64801,-9.287994c2.268005,-3.852005 2.59201,-9.576004 4.317993,-13.283997c1.549011,-3.815002 3.061005,-6.659012 5.652008,-8.964005c2.59201,-2.484009 6.192993,-4.932007 9.972992,-5.003998c3.707001,0.035995 7.561005,1.655991 11.951019,5.003998c-5.76001,-0.540009 -10.007996,0.072006 -13.28302,1.979996c-3.312988,1.979004 -5.075989,5.076004 -5.97699,9.28801c-1.007996,3.923996 -1.438995,11.339996 0.64801,14.61499c2.087982,3.097 8.208984,3.960999 11.950989,4.681c3.673004,0.68399 6.949982,0.612 9.973999,-0.360001z" clip-rule="evenodd"/>
  <path id="svg_49" fill-rule="evenodd" fill="#000080" d="m503.35199,169.128006l0,6.012009l-63.144989,0c1.765991,-0.143997 4.247986,-0.540009 7.30899,-1.332001c3.167999,-0.755997 7.343994,-1.403 10.980011,-3.348007c3.526978,-2.304001 7.164001,-5.399994 9.64798,-9.287994c2.268005,-3.852005 2.59201,-9.576004 4.317993,-13.283997c1.584015,-3.815002 2.953003,-6.659012 5.617004,-8.964005c2.59201,-2.484009 6.19101,-4.932007 9.973022,-5.003998c3.634979,0.035995 7.630981,1.655991 11.985992,5.003998c-5.688019,-0.540009 -10.080017,0.072006 -13.317993,1.979996c-3.313019,1.979004 -5.076019,5.076004 -5.97702,9.28801c-0.86499,3.923996 -1.511993,11.339996 0.684021,14.61499c2.087982,3.097 8.208984,3.960999 11.950989,4.681c3.675018,0.68399 6.950012,0.612 9.973999,-0.360001z" clip-rule="evenodd"/>
  <path id="svg_50" fill-rule="evenodd" fill="#000080" d="m547.270996,175.139999l-63.144989,0c1.765991,-0.143997 4.247986,-0.539993 7.30899,-1.332001c3.167999,-0.755997 7.343994,-1.403 10.980011,-3.347992c3.454987,-2.304001 7.126984,-5.400009 9.610992,-9.28801c2.268005,-3.85199 2.59198,-9.576004 4.320007,-13.283997c1.549011,-3.815002 3.060974,-6.658997 5.651978,-8.964005c2.592041,-2.483994 6.19104,-4.931992 9.973022,-5.003998c3.70697,0.035995 7.55896,1.656006 11.950989,5.003998c-5.76001,-0.539993 -10.007996,0.072006 -13.28302,1.980011c-3.312988,1.978989 -5.075989,5.075989 -5.97699,9.287994c-1.007996,3.923996 -1.439026,11.339996 0.64801,14.615005c2.015991,3.097 8.278992,2.987991 11.986023,4.681c3.677002,1.656998 6.951965,3.635986 9.974976,5.651993z" clip-rule="evenodd"/>
  <path id="svg_51" fill-rule="evenodd" fill="#008080" d="m69.587997,171l0,5.975998l-63.143998,0c1.764,-0.070999 4.248001,-0.647003 7.308,-1.330994c3.168,-0.792007 7.344001,-1.296997 10.98,-3.313004c3.528,-2.268005 7.164,-5.472 9.648001,-9.324005c2.267998,-3.85199 2.591999,-9.575989 4.32,-13.283997c1.548,-3.815002 3.059998,-6.658997 5.652,-8.964005c2.627998,-2.483994 6.119999,-4.931992 9.935997,-5.003998c3.708,0.036011 7.524002,1.656006 11.988003,5.003998c-5.760002,-0.539993 -10.007999,0.072006 -13.284,1.980011c-3.276001,1.944 -5.147999,5.18399 -6.012001,9.32399c-0.863998,3.924011 -1.512001,11.340012 0.684002,14.615005c2.087997,3.132996 8.208,3.888992 11.952,4.645004c3.671997,0.68399 6.948002,0.575989 9.971996,-0.324005z" clip-rule="evenodd"/>
  <path id="svg_52" fill-rule="evenodd" fill="#008080" d="m112.788002,171l0,5.975998l-63.144001,0c1.764,-0.070999 4.247997,-0.647003 7.307999,-1.330994c3.167999,-0.792007 7.343998,-1.296997 10.98,-3.313004c3.528,-2.268005 7.164001,-5.472 9.648003,-9.324005c2.267998,-3.85199 2.627998,-9.575989 4.283997,-13.283997c1.548004,-3.815002 3.060005,-6.658997 5.652,-8.964005c2.592003,-2.483994 6.192001,-4.931992 9.972,-5.003998c3.636002,0.036011 7.632004,1.656006 11.987999,5.003998c-5.687996,-0.539993 -10.079994,0.072006 -13.32,1.980011c-3.311996,1.944 -5.075996,5.18399 -5.975998,9.32399c-0.863998,3.924011 -1.512001,11.340012 0.683998,14.615005c2.088005,3.132996 8.208,3.888992 11.952003,4.645004c3.671997,0.68399 6.947998,0.575989 9.972,-0.324005z" clip-rule="evenodd"/>
  <path id="svg_53" fill-rule="evenodd" fill="#008080" d="m156.671997,171l0,5.975998l-63.107994,0c1.764,-0.070999 4.247993,-0.647003 7.307999,-1.330994c3.167999,-0.792007 7.344002,-1.296997 10.979996,-3.313004c3.456001,-2.268005 7.128006,-5.472 9.612,-9.324005c2.268005,-3.85199 2.592003,-9.575989 4.32,-13.283997c1.548004,-3.815002 3.059998,-6.658997 5.652008,-8.964005c2.591995,-2.483994 6.192001,-4.931992 9.972,-5.003998c3.707993,0.036011 7.559998,1.656006 11.951996,5.003998c-5.759995,-0.539993 -10.007996,0.072006 -13.283997,1.980011c-3.311996,1.944 -5.076004,5.18399 -5.975998,9.32399c-1.008011,3.924011 -1.440002,11.340012 0.647995,14.615005c2.123993,3.132996 8.244003,3.888992 11.987991,4.645004c3.708008,0.68399 6.876007,0.575989 9.936005,-0.324005z" clip-rule="evenodd"/>
  <path id="svg_54" fill-rule="evenodd" fill="#008080" d="m200.591995,171l0,5.975998l-63.108002,0c1.871994,-0.070999 4.21199,-0.647003 7.307999,-1.330994c3.095993,-0.792007 7.343994,-1.296997 10.944,-3.313004c3.528,-2.268005 7.164001,-5.472 9.647995,-9.324005c2.268005,-3.85199 2.591995,-9.575989 4.320007,-13.283997c1.547989,-3.815002 3.059998,-6.658997 5.651993,-8.964005c2.591995,-2.483994 6.192001,-4.931992 9.972,-5.003998c3.708008,0.036011 7.559998,1.656006 11.951996,5.003998c-5.759995,-0.539993 -10.007996,0.072006 -13.283997,1.980011c-3.311996,1.944 -5.076004,5.18399 -5.975998,9.32399c-1.007996,3.924011 -1.440002,11.340012 0.647995,14.615005c2.088013,3.132996 8.208008,3.888992 11.952011,4.645004c3.672012,0.68399 6.947998,0.575989 9.972,-0.324005z" clip-rule="evenodd"/>
  <path id="svg_55" fill-rule="evenodd" fill="#008080" d="m244.511993,171l0,5.975998l-63.143997,0c1.763992,-0.070999 4.248001,-0.647003 7.307999,-1.330994c3.167999,-0.792007 7.343994,-1.296997 10.979996,-3.313004c3.528,-2.268005 7.164001,-5.472 9.647995,-9.324005c2.268005,-3.85199 2.59201,-9.575989 4.320007,-13.283997c1.584,-3.815002 2.951996,-6.658997 5.615997,-8.964005c2.591995,-2.483994 6.192001,-4.931992 9.972,-5.003998c3.636002,0.036011 7.632004,1.656006 11.988007,5.003998c-5.688004,-0.539993 -10.080002,0.072006 -13.320007,1.980011c-3.311996,1.944 -5.076004,5.18399 -5.975998,9.32399c-0.863998,3.924011 -1.512009,11.340012 0.684006,14.615005c2.087997,3.132996 8.207993,3.888992 11.951996,4.645004c3.672012,0.68399 6.948013,0.575989 9.972,-0.324005z" clip-rule="evenodd"/>
  <path id="svg_56" fill-rule="evenodd" fill="#008080" d="m288.432007,171l0,5.975998l-63.143997,0c1.764008,-0.070999 4.248001,-0.647003 7.307999,-1.330994c3.167999,-0.792007 7.343994,-1.296997 10.979996,-3.313004c3.456009,-2.268005 7.128006,-5.472 9.612,-9.324005c2.268005,-3.85199 2.59201,-9.575989 4.319992,-13.283997c1.548004,-3.815002 3.060028,-6.658997 5.652008,-8.964005c2.59201,-2.483994 6.192017,-4.931992 9.972015,-5.003998c3.707977,0.036011 7.559998,1.656006 11.951996,5.003998c-5.76001,-0.539993 -10.007996,0.072006 -13.283997,1.980011c-3.312012,1.944 -5.076019,5.18399 -5.976013,9.32399c-1.007996,3.924011 -1.440002,11.340012 0.64801,14.615005c2.015991,3.132996 8.279999,3.888992 11.987,4.645004c3.671997,0.68399 6.948975,0.575989 9.972992,-0.324005z" clip-rule="evenodd"/>
  <path id="svg_57" fill-rule="evenodd" fill="#008080" d="m332.31601,171l0,5.975998l-63.108002,0c1.872009,-0.070999 4.212006,-0.647003 7.308014,-1.330994c3.095978,-0.792007 7.343994,-1.296997 10.942993,-3.313004c3.528992,-2.268005 7.164001,-5.472 9.64801,-9.324005c2.267975,-3.85199 2.59198,-9.575989 4.319977,-13.283997c1.549011,-3.815002 3.061005,-6.658997 5.652008,-8.964005c2.59201,-2.483994 6.19101,-4.931992 9.972992,-5.003998c3.707001,0.036011 7.559021,1.656006 11.951019,5.003998c-5.76001,-0.539993 -10.008026,0.072006 -13.28302,1.980011c-3.312988,1.944 -5.075989,5.18399 -5.97699,9.32399c-1.007996,3.924011 -1.438995,11.340012 0.64801,14.615005c2.087982,3.132996 8.207001,3.888992 11.950989,4.645004c3.673981,0.68399 6.948975,0.575989 9.973999,-0.324005z" clip-rule="evenodd"/>
  <path id="svg_58" fill-rule="evenodd" fill="#008080" d="m376.235992,171l0,5.975998l-63.144989,0c1.763977,-0.070999 4.247986,-0.647003 7.30899,-1.330994c3.167999,-0.792007 7.343994,-1.296997 10.979004,-3.313004c3.528992,-2.268005 7.164001,-5.472 9.64798,-9.324005c2.268005,-3.85199 2.59201,-9.575989 4.320007,-13.283997c1.584015,-3.815002 2.953003,-6.658997 5.61499,-8.964005c2.594025,-2.483994 6.193024,-4.931992 9.973022,-5.003998c3.636993,0.036011 7.632996,1.656006 11.988007,5.003998c-5.688019,-0.539993 -10.080017,0.072006 -13.320007,1.980011c-3.313019,1.944 -5.076019,5.18399 -5.97702,9.32399c-0.862976,3.924011 -1.511993,11.340012 0.686005,14.615005c2.088013,3.132996 8.207001,3.888992 11.951019,4.645004c3.673004,0.68399 6.947998,0.575989 9.972992,-0.324005z" clip-rule="evenodd"/>
  <path id="svg_59" fill-rule="evenodd" fill="#008080" d="m420.156006,171l0,5.975998l-63.144989,0c1.764008,-0.070999 4.247986,-0.647003 7.30899,-1.330994c3.167999,-0.792007 7.343994,-1.296997 10.97998,-3.313004c3.455017,-2.268005 7.127014,-5.472 9.611023,-9.324005c2.267975,-3.85199 2.59201,-9.575989 4.320007,-13.283997c1.546997,-3.815002 3.05899,-6.658997 5.651978,-8.964005c2.59201,-2.483994 6.19101,-4.931992 9.971008,-5.003998c3.708984,0.036011 7.561005,1.656006 11.953003,5.003998c-5.761993,-0.539993 -10.007996,0.072006 -13.285004,1.980011c-3.312988,1.944 -5.075989,5.18399 -5.97699,9.32399c-1.008026,3.924011 -1.439026,11.340012 0.64798,14.615005c2.016022,3.132996 8.281006,3.888992 11.988007,4.645004c3.674011,0.68399 6.950012,0.575989 9.975006,-0.324005z" clip-rule="evenodd"/>
  <path id="svg_60" fill-rule="evenodd" fill="#008080" d="m464.039001,171l0,5.975998l-63.106995,0c1.872986,-0.070999 4.212982,-0.647003 7.30899,-1.330994c3.096008,-0.792007 7.343994,-1.296997 10.942993,-3.313004c3.527008,-2.268005 7.164001,-5.472 9.64801,-9.324005c2.268005,-3.85199 2.59201,-9.575989 4.320007,-13.283997c1.546997,-3.815002 3.05899,-6.658997 5.651978,-8.964005c2.59201,-2.483994 6.19101,-4.931992 9.971008,-5.003998c3.709015,0.036011 7.561005,1.656006 11.953003,5.003998c-5.76001,-0.539993 -10.007996,0.072006 -13.285004,1.980011c-3.312988,1.944 -5.075989,5.18399 -5.975006,9.32399c-1.009979,3.924011 -1.440979,11.340012 0.646027,14.615005c2.087982,3.132996 8.208984,3.888992 11.952972,4.645004c3.673004,0.68399 6.949005,0.575989 9.972015,-0.324005z" clip-rule="evenodd"/>
  <path id="svg_61" fill-rule="evenodd" fill="#008080" d="m507.959015,171l0,5.975998l-63.143005,0c1.764008,-0.070999 4.247986,-0.647003 7.307007,-1.330994c3.167999,-0.792007 7.346008,-1.296997 10.97998,-3.313004c3.527008,-2.268005 7.164001,-5.472 9.64801,-9.324005c2.268005,-3.85199 2.59201,-9.575989 4.320007,-13.283997c1.546997,-3.815002 3.05899,-6.658997 5.652008,-8.964005c2.626984,-2.483994 6.118988,-4.931992 9.935974,-5.003998c3.707001,0.036011 7.52301,1.656006 11.988007,5.003998c-5.688995,-0.539993 -10.079987,0.072006 -13.320007,1.980011c-3.312988,1.944 -5.075989,5.18399 -5.97699,9.32399c-0.863007,3.924011 -1.511993,11.340012 0.68399,14.615005c2.088013,3.132996 8.209015,3.888992 11.953003,4.645004c3.673004,0.68399 6.949005,0.575989 9.972015,-0.324005z" clip-rule="evenodd"/>
  <path id="svg_62" fill-rule="evenodd" fill="#008080" d="m551.879028,176.975998l-63.143005,0c1.764008,-0.070999 4.248016,-0.647003 7.307007,-1.330994c3.167999,-0.792007 7.346008,-1.296997 10.980011,-3.313004c3.457001,-2.268005 7.128998,-5.472 9.613007,-9.324005c2.268005,-3.85199 2.59198,-9.575989 4.317993,-13.283997c1.549011,-3.815002 3.060974,-6.658997 5.651978,-8.964005c2.592041,-2.483994 6.19104,-4.931992 9.973022,-5.003998c3.70697,0.036011 7.560974,1.656006 11.950989,5.003998c-5.76001,-0.539993 -10.007996,0.072006 -13.28302,1.980011c-3.312988,1.944 -5.075989,5.18399 -5.97699,9.32399c-0.862976,3.924011 -1.511963,11.340012 0.684021,14.615005c2.088013,3.132996 8.208984,2.916 11.953003,4.645004c3.672974,1.692001 6.947937,3.528992 9.971985,5.651993z" clip-rule="evenodd"/>
  <path id="svg_63" fill-rule="evenodd" fill="#80C2FF" d="m10.116,176.292007c3.672,0.684006 5.544,3.636002 5.616,9.395996c-0.072001,5.615005 -11.484,21.384003 -5.472,24.407013c6.156,2.87999 40.499998,-13.139999 41.508001,-6.695007c0.503998,6.552002 -46.008001,40.535995 -36.648002,45.180008c9.828,4.319992 76.932002,-23.14801 93.708003,-18.396011c16.271996,4.932007 -25.092003,45.396011 4.5,47.123001c30.132004,1.403992 137.664001,-37.367004 172.764008,-38.123001c34.415985,-0.612 10.367004,36.070999 33.660004,33.659012c23.542999,-2.880005 86.76001,-48.132004 105.480011,-49.392014c18.214996,-0.972 -14.365021,42.084 4.462982,42.660019c19.26001,0.215973 92.160034,-31.78801 108.86499,-40.752014c16.199036,-8.929001 -13.860962,-4.824005 -11.59198,-12.815994c2.22998,-8.208008 10.438965,-19.835999 24.909973,-35.568008l-541.761991,-0.682999z" clip-rule="evenodd"/>
  <path id="svg_64" fill-rule="evenodd" fill="#F2C802" d="m396.64801,128.735992c-4.428009,-1.080002 -8.567993,-2.628006 -12.277008,-4.788002c-3.778992,-2.267998 -7.450989,-5.832001 -10.187988,-8.171997c-2.843994,-2.340004 -4.175995,-5.148003 -6.371002,-5.652c-2.304993,-0.612 -4.464996,-1.152 -7.057007,2.267998c-2.770996,3.419998 -6.335999,11.736 -8.604004,18.144005c-2.268005,6.263992 -4.212982,12.23999 -4.319977,19.29599c-0.14502,6.984009 -0.037018,15.660004 3.636993,22.284012c3.634979,6.587997 11.15799,13.103989 18.143005,17.028c7.019989,3.742996 12.024994,4.606995 23.18399,5.650986c10.945007,0.900009 30.925995,0.828003 42.445007,0.468002c11.446991,-0.431992 18.68399,0.540009 26.134979,-2.483002c7.346008,-3.095993 13.824005,-10.224991 17.930023,-15.695999c3.993988,-5.615997 5.866974,-11.664001 5.901978,-17.459991c-0.214996,-5.975998 -3.130981,-12.779999 -6.371002,-17.496002c-3.274994,-4.787994 -9.828003,-7.632004 -12.708984,-10.908005c-2.951019,-3.348 -4.606995,-5.795998 -4.535004,-9.287994c0.071991,-3.708 1.618988,-7.739998 4.786987,-12.492004l0,-20.44799c-0.46698,-0.972 -1.511993,-2.159996 -3.130981,-3.851997c-1.656006,-1.835999 -2.953003,-3.923996 -6.660004,-6.120003c-3.85199,-2.087997 -10.438995,-5.507996 -15.877014,-6.371994c-5.61499,-1.044006 -11.339996,-0.864006 -16.595978,0.683998s-10.943024,4.931999 -14.291016,8.639999c-3.312988,3.599998 -4.932007,9 -5.687988,13.139999c-0.865021,4.104004 -0.541016,7.344002 0.68399,11.375999c1.187988,3.959999 4.104004,9.108002 6.371002,12.239998c2.160004,2.916 4.968994,4.139999 6.335999,5.904007c1.296997,1.835999 1.800995,3.384003 1.368988,4.787994c-0.685974,1.152008 -2.269989,2.520004 -4.751984,2.699997c-2.59201,0.072006 -7.020996,-1.223999 -9.937988,-1.799988c-2.915039,-0.540009 -5.435028,-1.116013 -7.558014,-1.584015z" clip-rule="evenodd"/>
  <path id="svg_65" fill-rule="evenodd" fill="#D8A202" d="m353.770996,128.591995c0.071991,-1.907997 2.953003,-7.739998 4.464996,-10.548004c1.404022,-2.915993 2.699005,-5.328003 4.320007,-6.408005c1.475006,-1.223999 2.554993,-1.547997 5.18399,0c2.627014,1.620003 6.443024,6.480003 10.188019,9.324013c3.492004,2.772003 6.587982,4.896004 11.231995,6.912003c4.571991,1.872002 14.328003,3.420006 16.235992,4.499992c1.69101,1.080002 -1.765991,1.980011 -5.36499,1.728012c-3.63501,-0.432007 -11.770996,-3.564011 -16.235992,-3.960007c-4.570007,-0.432007 -7.920013,2.520004 -10.871002,1.367996c-2.988007,-1.332001 -5.111023,-7.091995 -6.912018,-8.819992c-1.835999,-1.872002 -2.843994,-2.520004 -4.140991,-1.548004c-1.438995,1.043999 -2.770996,6.407997 -4.139008,7.776001c-1.403992,1.223999 -4.067993,1.440002 -3.960999,-0.324005z" clip-rule="evenodd"/>
  <path id="svg_66" fill-rule="evenodd" fill="#D8A202" d="m384.839996,139.968002c1.367004,-0.216003 11.446991,2.339996 19.69101,3.636993c8.315979,1.151001 22.140991,1.906998 29.520996,3.636002c7.164001,1.727997 11.015991,3.132004 13.643005,6.731003c2.557007,3.455994 3.095978,9.899994 1.90799,14.328003c-1.403992,4.319992 -4.606995,9.108002 -9.324005,11.735992c-4.824005,2.520004 -11.087982,3.852005 -18.64801,3.456009c-7.667999,-0.64801 -24.083984,-5.363998 -26.062988,-6.229004c-1.835999,-0.720001 8.531006,1.477005 15.011993,1.584c6.40802,-0.070999 17.748016,0.828003 23.328003,-1.584c5.471008,-2.628006 8.963013,-9.468002 9.64801,-13.283005c0.574005,-3.888992 -1.693024,-7.056992 -5.688995,-9.50499c-4.06601,-2.520004 -11.375,-3.852005 -18.324005,-5.363007c-7.199005,-1.548004 -17.56601,-2.735992 -23.471008,-4.141006c-5.940979,-1.582993 -12.598999,-4.822998 -11.231995,-5.002991z" clip-rule="evenodd"/>
  <path id="svg_67" fill-rule="evenodd" fill="#D8A202" d="m433.729004,72.863998c3.671997,0.036003 7.343994,0.431999 10.871002,1.584c3.600006,1.116005 6.876984,2.268005 10.368988,4.824005c3.382996,2.411995 7.955017,6.335999 9.684021,9.683998c1.546997,3.311996 -0.072021,6.659996 0,10.187996c0.034973,3.492004 0.142975,6.660004 0.323975,10.188004c-1.655975,1.620003 -2.915985,3.636002 -3.780975,6.047997c-0.971008,2.375999 -1.764008,5.652 -1.404022,8.280006c0.324005,2.556 0.938019,4.031998 3.636993,7.056c2.664001,2.87999 12.457001,9.251999 12.420013,10.367996c-0.179993,0.899994 -9.503998,-1.511993 -13.104004,-4.319992c-3.671997,-2.988007 -5.725006,-10.116005 -8.640991,-12.780006c-3.061005,-2.592003 -9.035004,-0.071999 -9.324005,-2.736c-0.251984,-2.844002 5.76001,-8.928001 7.777008,-13.823997c1.871002,-5.040001 3.996002,-11.484001 3.454987,-15.732002c-0.721008,-4.248001 -4.644989,-8.244003 -7.596008,-9.648003c-3.095978,-1.475998 -6.767975,1.260002 -10.187988,0.863998c-3.492004,-0.540001 -9.251984,-1.944 -10.044983,-3.635994c-0.755005,-1.728004 1.04599,-3.816002 5.54599,-6.408005z" clip-rule="evenodd"/>
  <path id="svg_68" fill-rule="evenodd" fill="#CD3204" d="m463.786987,97.056c-0.214996,-2.195999 -1.511993,-4.823997 -1.402008,-6.372002c-0.036987,-1.655998 0.432007,-2.736 1.546997,-2.951996c1.115021,-0.360001 3.205017,1.079994 5.004028,1.547997c1.620972,0.431999 3.02298,1.728004 5.040985,1.548004c1.942993,-0.288002 5.39801,-2.916 7.054993,-2.736c1.549011,0.215996 2.701019,1.764 2.77301,3.959999c0.106995,2.159996 0.936005,5.255997 -2.231995,8.459999c-3.38501,3.096001 -14.076019,9.395996 -17.100006,10.007996c-3.061005,0.432007 -0.756012,-5.075996 -0.86499,-7.236c-0.108002,-2.267998 0.324005,-4.211998 0.178986,-6.227997z" clip-rule="evenodd"/>
  <path id="svg_69" fill-rule="evenodd" fill="#DA4100" d="m469.295013,93.096001c1.152008,-0.360001 2.557007,0.288002 4.5,0c1.656006,-0.503998 4.824005,-2.879997 6.049011,-2.412003s2.915985,2.556 1.187988,5.148003c-1.90799,2.519997 -9.936005,8.603996 -12.420013,10.043999c-2.626984,1.223999 -3.382996,-0.755997 -3.095978,-1.907997c0.289001,-1.260002 3.996002,-3.528 4.464996,-5.004005c0.179993,-1.619995 -2.449005,-2.987999 -2.59201,-3.959999c-0.037018,-0.972 0.645996,-1.655998 1.906006,-1.907997z" clip-rule="evenodd"/>
  <path id="svg_70" fill-rule="evenodd" fill="#FFFFFF" d="m445.73999,83.260002c3.756012,0 6.803009,3.290001 6.803009,7.343994c0,4.054001 -3.046997,7.344002 -6.803009,7.344002s-6.804993,-3.290001 -6.804993,-7.344002c0.001007,-4.053993 3.049011,-7.343994 6.804993,-7.343994" clip-rule="evenodd"/>
  <path id="svg_71" fill-rule="evenodd" d="m446.339996,85.204002c2.205017,0 3.996002,1.935997 3.996002,4.32c0,2.384995 -1.790985,4.32 -3.996002,4.32s-3.996002,-1.936005 -3.996002,-4.32c0,-2.384003 1.791016,-4.32 3.996002,-4.32" clip-rule="evenodd"/>
  <path id="svg_72" fill-rule="evenodd" fill="#FFFFFF" d="m446.938995,88.335999c0.795013,0 1.438995,0.694 1.438995,1.548004s-0.644989,1.547997 -1.438995,1.547997s-1.438995,-0.693001 -1.438995,-1.547997s0.644989,-1.548004 1.438995,-1.548004" clip-rule="evenodd"/>
  <path id="svg_73" fill-rule="evenodd" fill="#FFE42E" d="m415.26001,87.047997c-2.881012,1.764 -3.889008,5.472 -3.996002,8.784004c-0.286987,3.167999 0.036987,10.332001 2.770996,10.367996c2.735992,-0.18 11.018005,-7.416 13.464996,-10.871994c2.305023,-3.456001 2.664001,-8.532005 0.684021,-9.828003c-2.161011,-1.403999 -10.080017,-0.288002 -12.924011,1.547997z" clip-rule="evenodd"/>
  <path id="svg_74" fill-rule="evenodd" fill="#FFE42E" d="m420.084015,122.363998c1.403992,-0.035995 4.535004,2.232002 8.278992,2.916c3.709015,0.576004 12.420013,-0.108002 13.64502,0.863998c0.899994,1.008003 -3.061005,2.880005 -7.416016,4.5c-4.393005,1.404007 -15.911987,4.031998 -18.324005,4.139999c-2.304993,-0.108002 3.38501,-2.26799 4.141022,-3.959991c0.575989,-1.764008 -0.468994,-4.464005 -0.503998,-5.868004c-0.001038,-1.475998 -1.370026,-2.664001 0.178986,-2.592003z" clip-rule="evenodd"/>
  <path id="svg_75" fill-rule="evenodd" fill="#FFE42E" d="m357.731995,141.876007c-0.541016,1.332001 1.835999,9.576004 3.813995,12.779999c1.90799,3.240005 6.121002,6.335999 7.921997,6.227997c1.799011,-0.395996 3.311005,-5.543991 2.59201,-7.955994c-1.007996,-2.412003 -5.365021,-4.822998 -7.777008,-6.552002c-2.518982,-1.836014 -6.046997,-5.976013 -6.550995,-4.5z" clip-rule="evenodd"/>
  <path id="svg_76" fill-rule="evenodd" fill="#FFE42E" d="m401.075989,150.839996c-0.613007,-0.863998 -4.5,-0.431992 -7.774994,-1.188004c-3.38501,-0.899994 -9.506012,-3.959991 -11.557007,-3.636993c-2.053009,0.253006 -3.02301,3.889008 -0.540985,5.363998c2.339996,1.404007 11.700989,3.132004 15.048981,3.096008c3.275024,-0.143005 5.256012,-2.879013 4.824005,-3.63501z" clip-rule="evenodd"/>
  <path id="svg_77" fill-rule="evenodd" fill="#FFE42E" d="m399.38501,158.399994c-0.575989,-0.64801 -3.781006,0 -6.553009,-0.28801c-2.843994,-0.503998 -8.278992,-2.304993 -9.936005,-1.90799c-1.620972,0.503998 -2.196991,3.384003 0.072021,4.463989c2.122986,0.900009 9.936005,1.477005 12.742004,1.188004c2.701965,-0.539993 4.105988,-2.807983 3.674988,-3.455994z" clip-rule="evenodd"/>
  <path id="svg_78" fill-rule="evenodd" fill="#FFE42E" d="m400.320007,166.535995c-0.503998,-0.612 -3.708984,0.036011 -6.264008,-0.144989c-2.700989,-0.359009 -7.992004,-2.159012 -9.503998,-1.655014c-1.583984,0.323013 -1.90799,3.420013 0.143005,4.284012c2.088013,0.791992 9.432007,1.259995 12.167999,0.862991c2.628998,-0.431 3.781982,-2.843002 3.457001,-3.347z" clip-rule="evenodd"/>
  <path id="svg_79" fill-rule="evenodd" fill="#D8A202" d="m449.100006,193.5c2.770996,-0.324005 6.731995,-0.684006 10.369019,-2.052002c3.526978,-1.511993 7.415985,-3.744003 10.690979,-6.408005c3.167999,-2.807999 5.97702,-5.975998 8.278992,-9.647995c2.197021,-3.707001 4.03302,-7.955002 4.680023,-11.916c0.540985,-3.994995 0.071991,-8.639999 -1.402008,-11.410995c-1.514008,-2.699997 -4.682007,-3.996002 -7.417999,-5.005005c-2.843994,-1.188004 -9.035004,-3.384003 -9.143005,-1.727997c-0.071991,1.584 7.847992,7.847992 8.639008,11.412003c0.540985,3.455994 -4.390991,6.479004 -4.679993,9.647003c-0.287018,3.023987 4.319977,5.832001 3.132996,9c-1.438995,3.168991 -6.695007,8.315994 -10.90802,10.008987c-4.319977,1.548004 -12.274994,-0.827988 -14.14798,-0.181c-1.799011,0.612 3.528992,3.024002 2.953003,4.320007c-0.828003,1.223999 -7.09201,2.591995 -7.27301,3.276001c-0.216003,0.576996 3.384003,0.936996 6.227997,0.684998z" clip-rule="evenodd"/>
  <path id="svg_80" fill-rule="evenodd" fill="#F2C802" d="m225.792007,169.740005c-2.664001,-0.647995 -5.039993,-1.547989 -7.272003,-2.843994c-2.375992,-1.367996 -4.391998,-3.492004 -6.047989,-4.860001c-1.728012,-1.477005 -2.484009,-3.024002 -3.779999,-3.384003c-1.440002,-0.360001 -2.664001,-0.684998 -4.212006,1.367996c-1.656006,2.052002 -3.815994,6.947006 -5.112,10.800003c-1.404007,3.636002 -2.484009,7.270996 -2.556,11.447998c-0.216003,4.17601 0,9.180008 2.160004,13.212006c2.159988,3.888 6.587997,7.811996 10.799988,10.115005c4.068008,2.231995 7.164001,2.663986 13.752014,3.384995c6.551987,0.539993 18.287994,0.431992 25.199997,0.251999c6.731995,-0.181 11.124008,0.251999 15.516006,-1.477005c4.391998,-1.942993 8.171997,-6.012009 10.655975,-9.28801c2.413025,-3.384003 3.456024,-6.946991 3.528015,-10.402985c-0.035004,-3.601013 -1.944,-7.524017 -3.779999,-10.367996c-2.015991,-2.772018 -5.832001,-4.608002 -7.559998,-6.480011c-1.727997,-2.087997 -2.808014,-3.384003 -2.700012,-5.544006c0,-2.231003 0.899994,-4.571991 2.843994,-7.416l0,-12.132004c-0.251984,-0.503998 -0.863983,-1.403992 -1.835999,-2.303986c-1.007996,-1.115997 -1.727997,-2.375992 -3.959991,-3.636993c-2.376007,-1.332016 -6.227997,-3.240021 -9.468002,-3.779007c-3.23999,-0.576004 -6.839996,-0.576004 -9.827988,0.395996c-3.240005,0.935989 -6.444,2.878998 -8.496002,5.147995c-2.016006,2.195999 -2.916,5.255997 -3.384003,7.811996c-0.540009,2.447998 -0.360001,4.320007 0.395996,6.73201c0.684006,2.304001 2.447998,5.435989 3.779999,7.307999c1.296005,1.692001 2.880005,2.483994 3.779999,3.492004c0.756012,0.972 1.080002,2.051987 0.828003,2.843994c-0.360001,0.720993 -1.440002,1.440002 -2.843994,1.619995c-1.440002,-0.070999 -4.284012,-0.720001 -5.904007,-1.115997c-1.728012,-0.360001 -3.276001,-0.612 -4.5,-0.899994z" clip-rule="evenodd"/>
  <path id="svg_81" fill-rule="evenodd" fill="#D8A202" d="m200.339996,169.632004c0,-1.188004 1.764008,-4.572006 2.664001,-6.264008c0.828003,-1.763992 1.584,-3.203995 2.556,-3.779999c0.900009,-0.68399 1.512009,-1.007996 3.096008,0c1.511993,0.900009 3.85199,3.852997 6.047989,5.544006c2.088013,1.655991 3.888,2.87999 6.660004,4.103989c2.699997,1.080002 8.460007,2.016006 9.647995,2.664001c1.008011,0.575012 -1.079987,1.188004 -3.203995,1.008011c-2.268005,-0.216003 -6.912003,-2.160004 -9.612,-2.340012c-2.664001,-0.251999 -4.824005,1.439011 -6.479996,0.792007c-1.835999,-0.792007 -3.024002,-4.248001 -4.104004,-5.220993c-1.223999,-1.080002 -1.584,-1.619003 -2.447998,-0.936005c-0.863998,0.539993 -1.692001,3.888 -2.484009,4.643997c-0.899994,0.720993 -2.375992,0.792999 -2.339996,-0.214996z" clip-rule="evenodd"/>
  <path id="svg_82" fill-rule="evenodd" fill="#D8A202" d="m218.807999,176.399994c0.899994,-0.181 6.695999,1.367996 11.699997,2.160004c4.896011,0.574997 13.139999,1.150986 17.531998,2.158997c4.248001,0.972992 6.444,1.835999 8.100021,3.996002c1.475983,2.123993 1.799988,5.79599 1.115997,8.495987c-0.900024,2.521011 -2.736008,5.400009 -5.508011,6.984009c-2.951996,1.511993 -6.552002,2.194992 -11.087997,2.052002c-4.5,-0.28801 -14.400009,-3.276001 -15.516006,-3.671997c-1.080002,-0.540009 5.003998,0.863998 8.928009,0.898987c3.779999,-0.034988 10.475998,0.505005 13.860001,-0.898987c3.23999,-1.512009 5.291992,-5.724014 5.759995,-7.920013c0.360001,-2.339996 -1.044006,-4.175995 -3.384003,-5.651993c-2.447998,-1.548004 -6.768005,-2.231003 -10.871994,-3.167999c-4.17601,-0.936005 -10.584,-1.656006 -13.968002,-2.447998c-3.492004,-1.006989 -7.524002,-2.878998 -6.660004,-2.987z" clip-rule="evenodd"/>
  <path id="svg_83" fill-rule="evenodd" fill="#D8A202" d="m247.824005,136.548004c2.195999,0.035995 4.356003,0.216003 6.480011,0.935989c2.087982,0.432007 4.139984,1.512009 6.156006,2.844009c1.871979,1.403992 4.751984,3.779999 5.723999,5.759995c0.899994,1.944 -0.072021,3.960007 0,6.048004c0,1.979996 0.071991,3.996002 0.216003,6.048996c-1.044006,0.972 -1.800018,2.123001 -2.268005,3.600006c-0.540009,1.511993 -1.080017,3.203995 -0.792023,4.931992c0.216003,1.477005 0.468018,2.412003 2.124023,4.212006c1.583984,1.764999 7.343994,5.436996 7.415985,6.156006c-0.071991,0.467987 -5.723999,-0.899002 -7.811981,-2.59201c-2.196014,-1.800003 -3.384003,-6.047989 -5.112,-7.595993c-1.90802,-1.584 -5.328018,-0.036011 -5.544022,-1.62001c-0.143997,-1.728989 3.384018,-5.291992 4.608017,-8.207993c1.151978,-3.024002 2.303986,-6.839996 2.052002,-9.360001c-0.576019,-2.520004 -2.736023,-4.932007 -4.536011,-5.723999c-1.764008,-0.936996 -4.104004,0.755997 -6.048004,0.503998c-2.052002,-0.432999 -5.507996,-1.151993 -5.940002,-2.160004s0.612,-2.268997 3.276001,-3.780991z" clip-rule="evenodd"/>
  <path id="svg_84" fill-rule="evenodd" fill="#CD3204" d="m265.679993,150.912003c-0.179993,-1.332001 -0.828003,-2.880005 -0.828003,-3.81601c-0.071991,-0.935989 0.287994,-1.654999 0.936005,-1.727997c0.64801,-0.144989 1.872009,0.540009 2.988007,0.936005c0.863983,0.216995 1.799988,0.972992 2.951996,0.899994c1.223999,-0.144989 3.096008,-1.799988 4.212006,-1.619995c0.899994,0.072006 1.582977,1.044006 1.655975,2.339996c0.072021,1.225006 0.503998,3.132004 -1.332001,5.040009c-2.052002,1.728989 -8.315979,5.651993 -10.187988,5.940002c-1.872009,0.215988 -0.467987,-3.024002 -0.503998,-4.320007c-0.143982,-1.404007 0.216003,-2.483994 0.108002,-3.671997z" clip-rule="evenodd"/>
  <path id="svg_85" fill-rule="evenodd" fill="#DA4100" d="m268.955994,148.535995c0.612,-0.287994 1.548004,0.180008 2.664001,0c1.007996,-0.32399 2.807983,-1.728989 3.600006,-1.440002c0.755981,0.252014 1.691986,1.513 0.720001,3.097c-1.188019,1.476013 -5.868011,5.076004 -7.380005,5.939011c-1.511993,0.684998 -2.123993,-0.432007 -1.835999,-1.115997c0.216003,-0.756012 2.303986,-2.124008 2.664001,-2.987c0.108002,-0.973007 -1.476013,-1.800003 -1.548004,-2.340012c-0.071991,-0.576996 0.395996,-1.009003 1.115997,-1.153z" clip-rule="evenodd"/>
  <path id="svg_86" fill-rule="evenodd" fill="#FFFFFF" d="m254.940002,142.768997c2.225983,0 4.031982,1.951004 4.031982,4.354996s-1.806,4.356003 -4.031982,4.356003s-4.031998,-1.951996 -4.031998,-4.356003s1.806,-4.354996 4.031998,-4.354996" clip-rule="evenodd"/>
  <path id="svg_87" fill-rule="evenodd" d="m255.419998,143.968002c1.311996,0 2.375992,1.145996 2.375992,2.556992c0,1.410004 -1.063995,2.556 -2.375992,2.556s-2.375992,-1.145996 -2.375992,-2.556c0,-1.411987 1.063995,-2.556992 2.375992,-2.556992" clip-rule="evenodd"/>
  <path id="svg_88" fill-rule="evenodd" fill="#FFFFFF" d="m255.539993,145.707993c0.457001,0 0.827988,0.418991 0.827988,0.936996c0,0.516998 -0.370987,0.936005 -0.827988,0.936005s-0.828003,-0.419006 -0.828003,-0.936005c0.000015,-0.51799 0.371002,-0.936996 0.828003,-0.936996" clip-rule="evenodd"/>
  <path id="svg_89" fill-rule="evenodd" fill="#FFE42E" d="m236.843994,144.972c-1.656006,0.973007 -2.340012,3.313004 -2.340012,5.220993c-0.143997,1.907013 -0.071991,6.084 1.62001,6.155014c1.619995,-0.071014 6.515991,-4.5 8.028,-6.479004c1.367996,-2.124008 1.548004,-5.040009 0.395996,-5.832001c-1.29599,-0.82901 -6.083984,-0.145004 -7.703995,0.934998z" clip-rule="evenodd"/>
  <path id="svg_90" fill-rule="evenodd" fill="#FFE42E" d="m239.723999,165.923996c0.828003,-0.035995 2.664001,1.332001 4.932007,1.764999c2.123993,0.359009 7.416,-0.071991 8.099991,0.503998c0.540009,0.504013 -1.90799,1.764008 -4.427994,2.664001c-2.664001,0.792007 -9.432007,2.447006 -10.872009,2.483002c-1.475998,-0.106995 2.124008,-1.403 2.484009,-2.375992c0.287994,-1.080002 -0.28801,-2.664001 -0.324005,-3.492004c-0.035995,-0.863998 -0.828003,-1.656006 0.108002,-1.548004z" clip-rule="evenodd"/>
  <path id="svg_91" fill-rule="evenodd" fill="#FFE42E" d="m202.679993,177.516006c-0.360001,0.792007 1.043991,5.688004 2.26799,7.597c1.188004,1.764008 3.600006,3.923996 4.716003,3.708008c1.044006,-0.251999 1.980011,-3.313004 1.548004,-4.716003c-0.684006,-1.548996 -3.095993,-2.809006 -4.608002,-3.925003c-1.475983,-1.224014 -3.707993,-3.456009 -3.923996,-2.664001z" clip-rule="evenodd"/>
  <path id="svg_92" fill-rule="evenodd" fill="#FFE42E" d="m228.455994,182.880005c-0.395996,-0.432007 -2.736008,-0.396011 -4.643997,-0.720001c-2.052002,-0.540009 -5.688004,-2.376007 -6.876007,-2.160004s-1.835999,2.195999 -0.287994,3.167999c1.440002,0.755997 6.912003,1.835999 8.927994,1.835999c1.872009,-0.035995 3.20401,-1.763992 2.880005,-2.123993z" clip-rule="evenodd"/>
  <path id="svg_93" fill-rule="evenodd" fill="#FFE42E" d="m227.412003,187.343994c-0.360001,-0.396011 -2.304001,-0.036011 -3.888,-0.180008c-1.764008,-0.287994 -4.932007,-1.403992 -5.904007,-1.115997c-1.007996,0.287994 -1.259995,2.016998 0.072006,2.664001c1.259995,0.539993 5.867996,0.863998 7.559998,0.684998c1.548004,-0.288986 2.447998,-1.764984 2.160004,-2.052994z" clip-rule="evenodd"/>
  <path id="svg_94" fill-rule="evenodd" fill="#FFE42E" d="m227.988007,192.167999c-0.32399,-0.360001 -2.160004,0.035995 -3.707993,-0.072006c-1.62001,-0.143997 -4.751999,-1.403 -5.652008,-1.007996c-0.972,0.251999 -1.223999,1.944 0.072006,2.557007c1.151993,0.431992 5.651993,0.755997 7.235992,0.539993c1.475998,-0.324997 2.304001,-1.692993 2.052002,-2.016998z" clip-rule="evenodd"/>
  <path id="svg_95" fill-rule="evenodd" fill="#D8A202" d="m256.967987,208.188004c1.692017,-0.036011 3.924011,-0.576004 6.156006,-1.225006c2.087982,-0.863998 4.391998,-2.26799 6.372009,-3.778992c1.835999,-1.62001 3.563995,-3.637009 4.895996,-5.761002c1.223999,-2.160004 2.375977,-4.78801 2.772003,-7.056c0.251984,-2.376007 0.071991,-5.184006 -0.828003,-6.768997c-0.936005,-1.655014 -2.772003,-2.376007 -4.391998,-2.987015c-1.764008,-0.863998 -5.328003,-1.90799 -5.436005,-1.043991c0,1.043991 4.571991,4.5 5.112,6.768005c0.287994,2.123993 -2.627991,3.815994 -2.772003,5.759995c-0.144012,1.764999 2.519989,3.492004 1.872009,5.328003c-0.792023,1.871994 -4.068024,4.932999 -6.480011,5.97699c-2.59201,0.863007 -7.235992,-0.468994 -8.388,-0.107986c-1.188004,0.359985 2.160004,1.728989 1.727997,2.556c-0.432007,0.791992 -4.319992,1.439987 -4.319992,1.944c-0.143997,0.32399 2.016006,0.503998 3.707993,0.395996z" clip-rule="evenodd"/>
  <path id="svg_96" fill-rule="evenodd" fill="#F2C802" d="m299.375,188.028c-2.807007,-0.647995 -5.363007,-1.692001 -7.667999,-2.988007c-2.481995,-1.439987 -4.606995,-3.635986 -6.371002,-5.075989c-1.656006,-1.548004 -2.699005,-3.20401 -3.960999,-3.563004c-1.438995,-0.468994 -2.770996,-0.684998 -4.390991,1.438995c-1.692017,2.124008 -4.032013,7.380005 -5.364014,11.339996c-1.403992,3.780014 -2.627991,7.740005 -2.699982,12.024002c-0.144012,4.356003 -0.036011,9.684006 2.267975,13.896011c2.304016,4.067993 6.876007,8.207993 11.33902,10.619995c4.212982,2.304993 7.595978,2.880005 14.436005,3.528c6.911987,0.612 19.116974,0.431992 26.460999,0.287994c7.128998,-0.32399 11.59198,0.360001 16.30899,-1.547989c4.643005,-1.944 8.567993,-6.372009 11.195007,-9.792007c2.446991,-3.600998 3.671997,-7.235992 3.671997,-10.908005c-0.14502,-3.779999 -2.015991,-7.883987 -3.959015,-10.90799c-2.052979,-2.988007 -6.121002,-4.78801 -7.919983,-6.804001c-1.835999,-2.124008 -2.881012,-3.600998 -2.846008,-5.796005c0.071991,-2.304993 0.937988,-4.895996 2.988007,-7.776001l0,-12.744003c-0.287018,-0.611008 -0.936005,-1.368011 -1.942993,-2.412003c-1.080017,-1.078995 -1.873016,-2.591995 -4.176025,-3.852005c-2.411987,-1.29599 -6.552979,-3.455994 -9.899994,-3.959991c-3.454987,-0.684006 -7.126984,-0.540009 -10.332001,0.431992c-3.312988,1.007996 -6.839996,2.988007 -8.927979,5.400009c-2.125,2.26799 -3.02301,5.507996 -3.527008,8.207993c-0.468994,2.520004 -0.468994,4.608002 0.394989,7.091995c0.721008,2.412003 2.557007,5.652008 3.960999,7.632004c1.295013,1.800003 3.131012,2.520996 3.996002,3.671997c0.68399,1.080002 1.187988,2.124008 0.828003,2.988007c-0.468994,0.755997 -1.403992,1.548004 -2.953003,1.692001c-1.72699,-0.035995 -4.320007,-0.792007 -6.22699,-1.152008c-1.835999,-0.395981 -3.350006,-0.719986 -4.682007,-0.971985z" clip-rule="evenodd"/>
  <path id="svg_97" fill-rule="evenodd" fill="#D8A202" d="m272.627991,187.919998c0.036011,-1.223999 1.835999,-4.751999 2.772003,-6.552002c0.863983,-1.835999 1.619995,-3.347992 2.699982,-3.996002c0.936005,-0.791992 1.549011,-0.935989 3.240021,0c1.548981,0.900009 4.031006,4.139999 6.335999,5.832001c2.195007,1.62001 4.067993,3.096008 7.019989,4.284012c2.881012,1.187988 8.893005,2.123993 10.117004,2.807999c1.007996,0.647995 -1.079987,1.187988 -3.350006,1.080002c-2.375,-0.360001 -7.233978,-2.160004 -10.11499,-2.484009c-2.770996,-0.216003 -5.075989,1.513 -6.768005,0.863998c-1.90799,-0.863998 -3.167999,-4.354996 -4.320007,-5.472c-1.224976,-1.151993 -1.763977,-1.655991 -2.59198,-0.972c-0.900024,0.684006 -1.764008,3.960007 -2.59201,4.822998c-0.935974,0.757004 -2.447998,0.865005 -2.447998,-0.214996z" clip-rule="evenodd"/>
  <path id="svg_98" fill-rule="evenodd" fill="#D8A202" d="m291.996002,195.048004c0.828003,-0.251999 7.09201,1.47699 12.274994,2.268997c5.113007,0.610992 13.895996,1.223999 18.432007,2.268005c4.428009,1.007996 6.839996,1.944 8.496002,4.175995c1.548981,2.087997 1.945007,6.229004 1.188995,8.964005c-0.86499,2.699997 -2.846008,5.651993 -5.796997,7.30899c-3.02301,1.62001 -6.946991,2.339996 -11.628998,2.160004c-4.859009,-0.360001 -15.011993,-3.419998 -16.270996,-3.889008c-1.042999,-0.467987 5.18399,0.828003 9.360992,0.973007c4.06601,-0.072006 10.906006,0.576004 14.542999,-0.973007c3.38501,-1.654999 5.579987,-5.903 6.049011,-8.278992c0.286987,-2.447998 -1.045013,-4.429001 -3.564026,-5.940002c-2.59198,-1.619995 -7.09198,-2.412003 -11.411987,-3.347992c-4.464996,-0.973007 -11.015991,-1.729004 -14.652008,-2.557007c-3.816986,-1.009003 -7.776001,-3.024994 -7.019989,-3.132996z" clip-rule="evenodd"/>
  <path id="svg_99" fill-rule="evenodd" fill="#D8A202" d="m322.488007,153.179993c2.339996,-0.035004 4.5,0.287994 6.768005,0.972992c2.195007,0.540009 4.355011,1.548004 6.480011,3.02301c2.087982,1.440002 4.931976,3.959991 6.046997,6.047989c1.007996,2.089005 -0.143005,4.104004 0,6.336014c0,2.088989 0.071991,4.212997 0.21698,6.371994c-1.079987,1.009003 -1.872986,2.268997 -2.376984,3.779999c-0.576019,1.584 -1.188019,3.348999 -0.863007,5.147995c0.144989,1.548004 0.575989,2.556 2.268005,4.428009c1.764008,1.871994 7.632996,5.687988 7.73999,6.444c-0.214996,0.539993 -5.903992,-0.863998 -8.171997,-2.664001c-2.304993,-1.872009 -3.636993,-6.335999 -5.399994,-7.992004c-1.979004,-1.619995 -5.688019,-0.108002 -5.832001,-1.729004c-0.252014,-1.799988 3.636993,-5.543991 4.860992,-8.603989c1.11499,-3.167999 2.481995,-7.128006 2.160004,-9.792007c-0.540985,-2.735992 -2.915985,-5.076004 -4.753998,-6.048004c-1.906006,-0.972992 -4.246002,0.828003 -6.335999,0.540009c-2.230011,-0.360001 -5.76001,-1.26001 -6.264008,-2.268997c-0.503998,-1.078003 0.648987,-2.409988 3.457001,-3.994003z" clip-rule="evenodd"/>
  <path id="svg_100" fill-rule="evenodd" fill="#FFFFFF" d="m329.938995,159.591995c2.346008,0 4.248016,2.049011 4.248016,4.572006s-1.902008,4.571991 -4.248016,4.571991c-2.343994,0 -4.247986,-2.048996 -4.247986,-4.571991s1.904999,-4.572006 4.247986,-4.572006" clip-rule="evenodd"/>
  <path id="svg_101" fill-rule="evenodd" d="m330.420013,161.020996c1.371002,0 2.484009,1.193008 2.484009,2.664001c0,1.470001 -1.113007,2.66301 -2.484009,2.66301s-2.484009,-1.193008 -2.484009,-2.66301c0,-1.470993 1.113007,-2.664001 2.484009,-2.664001" clip-rule="evenodd"/>
  <path id="svg_102" fill-rule="evenodd" fill="#FFFFFF" d="m330.660004,162.712006c0.496002,0 0.899994,0.436005 0.899994,0.973007c0,0.535995 -0.403992,0.972 -0.899994,0.972c-0.498016,0 -0.899994,-0.436005 -0.899994,-0.972c0,-0.53801 0.401978,-0.973007 0.899994,-0.973007" clip-rule="evenodd"/>
  <path id="svg_103" fill-rule="evenodd" fill="#FFE42E" d="m310.968994,162.035995c-1.765991,1.044006 -2.449005,3.419998 -2.484009,5.472c-0.144989,1.908005 -0.071991,6.516998 1.72699,6.480011c1.693024,-0.145004 6.805023,-4.681 8.389008,-6.804001c1.47702,-2.23201 1.621002,-5.292999 0.432007,-6.12001c-1.405975,-0.935989 -6.264984,-0.143997 -8.063995,0.972z" clip-rule="evenodd"/>
  <path id="svg_104" fill-rule="evenodd" fill="#FFE42E" d="m313.992004,184.067993c0.790985,0.035995 2.878998,1.29599 5.14801,1.835999c2.339996,0.358994 7.774994,-0.108002 8.530975,0.539993c0.64801,0.540009 -2.052979,1.835999 -4.644989,2.771011c-2.807007,0.936996 -9.899994,2.447998 -11.411987,2.591995c-1.475006,-0.106995 2.125,-1.403 2.59198,-2.483002c0.289001,-1.115997 -0.286987,-2.699997 -0.321991,-3.636002c-0.144012,-0.899994 -0.756989,-1.763992 0.108002,-1.619995z" clip-rule="evenodd"/>
  <path id="svg_105" fill-rule="evenodd" fill="#FFE42E" d="m275.075989,196.235992c-0.251984,0.899002 1.007996,5.867996 2.375,7.955994c1.26001,1.979004 3.709015,3.924011 4.968994,3.888c1.042999,-0.32399 2.088013,-3.455994 1.619019,-4.968002c-0.611023,-1.655991 -3.383026,-2.87999 -4.859009,-4.067993c-1.618988,-1.187988 -3.779999,-3.743988 -4.104004,-2.807999z" clip-rule="evenodd"/>
  <path id="svg_106" fill-rule="evenodd" fill="#FFE42E" d="m302.110992,201.815994c-0.394989,-0.540009 -2.843994,-0.324005 -4.824005,-0.755997c-2.122986,-0.612015 -5.975006,-2.376007 -7.234009,-2.23201c-1.368988,0.28801 -1.800995,2.23201 -0.323975,3.311996c1.438995,0.900009 7.306976,1.872009 9.394989,1.944c2.123993,-0.179977 3.166992,-1.763977 2.987,-2.26799z" clip-rule="evenodd"/>
  <path id="svg_107" fill-rule="evenodd" fill="#FFE42E" d="m301.067993,206.531998c-0.360992,-0.395996 -2.377014,-0.035995 -4.105011,-0.179993c-1.763977,-0.360001 -5.218994,-1.404007 -6.190979,-1.188004c-1.042999,0.324005 -1.404022,2.052002 0.036987,2.807999c1.332001,0.612 6.153992,0.899994 7.954987,0.720993c1.656036,-0.360992 2.55603,-1.728989 2.304016,-2.160995z" clip-rule="evenodd"/>
  <path id="svg_108" fill-rule="evenodd" fill="#FFE42E" d="m301.644989,211.608002c-0.360992,-0.324005 -2.304993,-0.035995 -3.889008,-0.108002c-1.800995,-0.251999 -4.895996,-1.332001 -5.938995,-1.007996c-1.007996,0.287994 -1.26001,2.015991 0.071991,2.664001c1.223022,0.539993 5.939026,0.720001 7.631012,0.539993c1.621002,-0.216003 2.376007,-1.835999 2.125,-2.087997z" clip-rule="evenodd"/>
  <path id="svg_109" fill-rule="evenodd" fill="#D8A202" d="m332.063995,228.419998c1.69101,-0.179993 4.175995,-0.468002 6.479004,-1.259995c2.088013,-0.972 4.682007,-2.304001 6.660004,-3.996002c1.980011,-1.727997 3.708984,-3.888 5.186005,-6.048004c1.259979,-2.339996 2.554993,-5.003998 2.915985,-7.416c0.322021,-2.556 0.035004,-5.436996 -0.86499,-7.127991c-1.042999,-1.656006 -2.916016,-2.557007 -4.644989,-3.097c-1.871002,-0.756012 -5.578003,-2.088013 -5.688019,-1.07901c-0.071991,1.044006 4.860992,4.751999 5.36499,7.09201c0.39502,2.159988 -2.846008,3.995987 -2.915985,6.047989c-0.14502,1.835999 2.626984,3.600006 1.942993,5.580002c-0.863007,1.944 -4.140991,5.184006 -6.768005,6.264008c-2.77301,1.007996 -7.667999,-0.647003 -8.856995,-0.10701c-1.26001,0.322998 2.269989,1.872009 1.835999,2.699005c-0.539001,0.828003 -4.355011,1.513 -4.5,2.052994c-0.033997,0.431 1.946014,0.46701 3.854004,0.395004z" clip-rule="evenodd"/>
  <path id="svg_110" fill-rule="evenodd" fill="#CD3204" d="m339.839996,168.912003c0.610992,-2.628006 0.324005,-3.563995 2.557007,-5.184006c2.230011,-1.655991 8.710999,-5.509003 9.971008,-4.787994c1.188995,0.791992 0.251984,3.744003 -2.916016,9.035004c1.729004,2.195999 2.628998,3.888992 2.843994,5.363998c0.072021,1.403992 -0.718994,2.412003 -1.835999,3.167999c-1.187988,0.612 -3.48999,1.151993 -5.110992,0.791992c-1.729004,-0.395996 -3.420013,-1.619995 -5.075989,-3.384003c-0.002014,0.001007 -1.044006,-2.338989 -0.433014,-5.002991z" clip-rule="evenodd"/>
  <path id="svg_111" fill-rule="evenodd" fill="#DA4100" d="m348.084015,167.544006c0.863007,-0.395996 1.187988,-1.438995 1.656006,-2.591995c0.431976,-1.223999 1.798981,-3.923996 1.187988,-4.212006c-0.721008,-0.360001 -3.924011,1.548004 -5.290985,2.412003c-1.549011,0.755997 -2.953003,1.727997 -3.240021,2.376007c-0.324005,0.610992 0.646027,0.791992 1.656006,1.223999c1.007996,0.395981 2.950989,0.935989 4.031006,0.791992z" clip-rule="evenodd"/>
  <path id="svg_112" fill-rule="evenodd" fill="#DA4100" d="m347.14801,168.623993c-0.86499,-0.64801 -3.563995,-1.080002 -4.609009,-0.720001c-1.11499,0.358994 -1.653992,1.690994 -1.618988,2.880005c0,1.079987 0.359009,3.131989 1.47699,3.923996c0.971008,0.720001 3.527008,0.68399 4.752014,0.576004c1.259979,-0.180008 2.446991,-1.080002 2.59198,-1.584c-0.144989,-0.64801 -2.125,-1.368011 -2.59198,-2.160004c-0.469025,-1.007996 0.682983,-2.304001 -0.001007,-2.916z" clip-rule="evenodd"/>
  <path id="svg_113" fill-rule="evenodd" fill="#F2C802" d="m164.664001,186.660004c-2.843994,-0.684998 -5.255997,-1.62001 -7.632004,-2.952011c-2.483994,-1.403992 -4.608002,-3.707993 -6.371994,-5.112c-1.656006,-1.511993 -2.699997,-3.238998 -3.960007,-3.526993c-1.440002,-0.432999 -2.772003,-0.755997 -4.391998,1.403c-1.656006,2.123993 -4.104004,7.380997 -5.399994,11.341003c-1.404007,3.778992 -2.628006,7.738998 -2.700012,12.022995c-0.143997,4.356003 -0.035995,9.684998 2.268005,13.895996c2.304001,4.067001 6.876007,8.208008 11.339996,10.62001c4.248001,2.304001 7.632004,2.87999 14.472,3.526993c6.912003,0.612 19.116013,0.432999 26.460007,0.28801c7.091995,-0.324005 11.699997,0.359985 16.307999,-1.548004c4.572006,-1.944 8.567993,-6.372009 11.160004,-9.792007c2.412003,-3.599991 3.744003,-7.235992 3.707993,-10.90799c-0.035995,-3.708008 -2.052002,-7.992004 -3.959991,-10.908005c-2.016006,-3.022995 -6.192001,-4.680008 -7.956009,-6.768005c-1.835999,-2.087997 -2.916,-3.707993 -2.807999,-5.832001c0.035995,-2.304001 0.972,-4.895996 2.951996,-7.776001l0,-12.743988c-0.287994,-0.611008 -0.935989,-1.367004 -1.944,-2.411011c-1.115997,-1.115997 -1.799988,-2.520996 -4.139999,-3.815994c-2.411987,-1.404007 -6.551987,-3.384003 -9.899994,-3.996002c-3.600006,-0.684006 -7.056,-0.539993 -10.367996,0.432007c-3.348007,1.008987 -6.768005,2.987991 -8.891998,5.399994c-2.195999,2.268997 -3.059998,5.507996 -3.564011,8.207993c-0.539993,2.521011 -0.395996,4.608002 0.432007,7.09201c0.720001,2.412003 2.556,5.651993 3.959991,7.632004c1.368011,1.871994 3.060013,2.556992 3.960007,3.707993c0.755997,1.080002 1.188004,2.160004 0.863998,2.951996c-0.431992,0.756012 -1.475998,1.548004 -2.987991,1.692001c-1.584,-0.071991 -4.428009,-0.720001 -6.192001,-1.115997c-1.800003,-0.395996 -3.419998,-0.684006 -4.716003,-1.007996z" clip-rule="evenodd"/>
  <path id="svg_114" fill-rule="evenodd" fill="#D8A202" d="m137.916,186.587997c0.035995,-1.188004 1.800003,-4.858994 2.807999,-6.587997c0.863998,-1.835999 1.619995,-3.348007 2.699997,-3.996002c0.936005,-0.791992 1.548004,-0.936005 3.240005,0c1.548004,0.900009 4.031998,4.141006 6.335999,5.832001c2.195999,1.692001 4.067993,3.132004 7.020004,4.320007c2.87999,1.115997 8.891998,2.087997 10.115997,2.770996c1.007996,0.647995 -1.080002,1.188004 -3.348007,1.080002c-2.375992,-0.359009 -7.235992,-2.195007 -10.115997,-2.447006c-2.87999,-0.216995 -5.003998,1.512009 -6.804001,0.863007c-1.871994,-0.828003 -3.203995,-4.464005 -4.283997,-5.508011c-1.223999,-1.151993 -1.763992,-1.655991 -2.591995,-0.972c-0.900009,0.611008 -1.764008,4.031006 -2.59201,4.859009c-0.899994,0.759003 -2.556,0.865997 -2.483994,-0.214005z" clip-rule="evenodd"/>
  <path id="svg_115" fill-rule="evenodd" fill="#D8A202" d="m157.320007,193.679993c0.828003,-0.251999 7.091995,1.47699 12.276001,2.268997c5.112,0.612 13.895996,1.223999 18.432007,2.268005c4.427994,1.007996 6.839996,1.944 8.496002,4.175995c1.547989,2.089005 1.944,6.229004 1.187988,8.964996c-0.828003,2.699005 -2.951996,5.651001 -5.832001,7.307999c-3.024002,1.62001 -6.947998,2.340012 -11.627991,2.160004c-4.860001,-0.360001 -15.012009,-3.419998 -16.272003,-3.888c-1.115997,-0.468994 5.255997,0.826996 9.395996,0.972c4.068008,-0.071991 10.908005,0.576004 14.544006,-0.972c3.455994,-1.656006 5.507996,-5.903992 6.011993,-8.279999c0.432007,-2.447998 -1.115997,-4.427994 -3.528,-5.940002c-2.591995,-1.548004 -7.056,-2.375992 -11.447998,-3.311996c-4.464005,-1.007996 -11.016006,-1.692001 -14.651993,-2.591995c-3.708023,-1.009995 -7.848022,-3.026001 -6.984009,-3.134003z" clip-rule="evenodd"/>
  <path id="svg_116" fill-rule="evenodd" fill="#D8A202" d="m187.811996,151.848007c2.339996,-0.035004 4.5,0.28801 6.768005,0.973007c2.195999,0.503998 4.356003,1.547989 6.479996,2.987c1.979996,1.513 5.003998,3.852997 6.012009,6.048996c1.007996,2.087997 -0.144012,4.104004 0,6.335999c0,2.087997 0.071991,4.212006 0.215988,6.371994c-1.080002,1.008011 -1.871994,2.268005 -2.375992,3.779007c-0.503998,1.584 -1.152008,3.348999 -0.828003,5.147995c0.180008,1.548004 0.503998,2.556 2.231995,4.428009c1.692001,1.800003 7.70401,5.759995 7.776001,6.479996c-0.179993,0.468002 -5.975998,-0.899994 -8.207993,-2.699997c-2.339996,-1.835999 -3.528,-6.444 -5.363998,-7.992004c-1.980011,-1.619995 -5.688004,-0.108002 -5.832001,-1.727997c-0.251999,-1.800995 3.636002,-5.544006 4.860001,-8.604004c1.115997,-3.167999 2.483994,-7.127991 2.159988,-9.791992c-0.539993,-2.736008 -2.915985,-5.076004 -4.751999,-6.048004c-1.90799,-0.972 -4.248001,0.828003 -6.335999,0.539993c-2.231995,-0.360001 -5.759995,-1.259995 -6.263992,-2.268997c-0.503998,-1.115005 0.647995,-2.339005 3.455994,-3.959z" clip-rule="evenodd"/>
  <path id="svg_117" fill-rule="evenodd" fill="#FFFFFF" d="m195.300003,158.391998c2.345001,0 4.248001,2.048996 4.248001,4.572006c0,2.524002 -1.903,4.571991 -4.248001,4.571991s-4.248001,-2.047989 -4.248001,-4.571991c0,-2.524002 1.903,-4.572006 4.248001,-4.572006" clip-rule="evenodd"/>
  <path id="svg_118" fill-rule="evenodd" d="m195.660004,159.544006c1.371994,0 2.483994,1.210007 2.483994,2.699997s-1.112991,2.700012 -2.483994,2.700012c-1.371002,0 -2.484009,-1.210007 -2.484009,-2.700012s1.113007,-2.699997 2.484009,-2.699997" clip-rule="evenodd"/>
  <path id="svg_119" fill-rule="evenodd" fill="#FFFFFF" d="m196.020004,161.511993c0.496994,0 0.899994,0.435989 0.899994,0.972992c0,0.536011 -0.403,0.972 -0.899994,0.972c-0.497009,0 -0.900009,-0.435989 -0.900009,-0.972c0,-0.537979 0.403,-0.972992 0.900009,-0.972992" clip-rule="evenodd"/>
  <path id="svg_120" fill-rule="evenodd" fill="#FFE42E" d="m176.292007,160.667999c-1.763992,1.007996 -2.447998,3.492004 -2.483994,5.507996c-0.143997,1.980011 -0.072006,6.444 1.727997,6.444c1.692001,-0.179993 6.804001,-4.571991 8.388,-6.76799c1.475998,-2.195999 1.619995,-5.363998 0.431992,-6.156006c-1.404007,-0.936005 -6.264008,-0.143997 -8.063995,0.972z" clip-rule="evenodd"/>
  <path id="svg_121" fill-rule="evenodd" fill="#FFE42E" d="m179.279999,182.699997c0.899994,0.035995 2.772003,1.296005 5.184006,1.835999c2.26799,0.360001 7.73999,-0.108002 8.496002,0.540009c0.612,0.468002 -1.944,1.90799 -4.608002,2.807999c-2.772003,0.899994 -9.972,2.447998 -11.447998,2.556992c-1.476013,-0.071991 2.123993,-1.439987 2.591995,-2.447998c0.287994,-1.080002 -0.28801,-2.807999 -0.324005,-3.671997c-0.143997,-0.901001 -0.755997,-1.764999 0.108002,-1.621002z" clip-rule="evenodd"/>
  <path id="svg_122" fill-rule="evenodd" fill="#FFE42E" d="m140.399994,194.867996c-0.251999,0.900009 1.007996,5.867996 2.375992,7.956009c1.26001,1.978989 3.708008,3.923996 4.968002,3.888c1.115997,-0.251999 2.016006,-3.419998 1.584,-4.932007c-0.647995,-1.619995 -3.276001,-2.987991 -4.824005,-4.104004c-1.61998,-1.187988 -3.779984,-3.743988 -4.103989,-2.807999z" clip-rule="evenodd"/>
  <path id="svg_123" fill-rule="evenodd" fill="#FFE42E" d="m167.436005,200.483994c-0.396011,-0.540009 -2.844009,-0.324005 -4.824005,-0.755997c-2.123993,-0.576004 -5.975998,-2.448013 -7.235992,-2.269012c-1.368011,0.216003 -1.800003,2.304001 -0.324005,3.348007c1.475998,0.791992 7.235992,1.944 9.360001,1.908005c2.052002,-0.069992 3.23999,-1.834991 3.024002,-2.231003z" clip-rule="evenodd"/>
  <path id="svg_124" fill-rule="evenodd" fill="#FFE42E" d="m166.391998,205.164001c-0.360001,-0.395996 -2.375992,-0.035995 -4.104004,-0.180008c-1.763992,-0.360001 -5.220001,-1.403992 -6.192001,-1.187988c-1.043991,0.32399 -1.403992,2.052002 0.036011,2.80899c1.332001,0.611008 6.155991,0.899002 7.955994,0.720001c1.656006,-0.360992 2.556,-1.729004 2.304001,-2.160995z" clip-rule="evenodd"/>
  <path id="svg_125" fill-rule="evenodd" fill="#FFE42E" d="m166.968002,210.240005c-0.468002,-0.360001 -2.195999,0.036011 -3.923996,-0.071991c-1.728012,-0.251999 -5.004013,-1.296005 -5.940002,-1.044006c-1.080002,0.287994 -1.188004,2.016006 0.108002,2.664001c1.259995,0.503998 5.867996,0.792007 7.595993,0.576004c1.548004,-0.360016 2.447998,-1.764008 2.160004,-2.124008z" clip-rule="evenodd"/>
  <path id="svg_126" fill-rule="evenodd" fill="#D8A202" d="m197.388,227.087997c1.692001,-0.143997 4.175995,-0.576004 6.479996,-1.29599c2.087997,-0.936005 4.680008,-2.412003 6.660004,-3.996002c1.979996,-1.728012 3.707993,-3.888 5.184006,-6.048004c1.332001,-2.339996 2.483994,-5.003998 2.87999,-7.416c0.360001,-2.483994 0.036011,-5.399994 -0.827988,-7.091995c-1.044006,-1.656006 -2.916,-2.556 -4.644012,-3.132004c-1.835999,-0.755997 -5.687988,-2.087997 -5.723999,-1.080002c0,1.044006 4.860001,4.751999 5.400009,7.091995c0.395996,2.160004 -2.844009,3.996002 -2.916,6.048004c-0.144012,1.835999 2.627991,3.600998 1.944,5.580002c-0.936005,1.944 -4.17601,5.184006 -6.804001,6.263992c-2.807999,1.009003 -7.559998,-0.646988 -8.820007,-0.106995c-1.259995,0.324005 2.268005,1.871994 1.835999,2.699997c-0.503998,0.827011 -4.463989,1.512009 -4.535995,2.052002c-0.072006,0.395004 2.016006,0.539001 3.888,0.431z" clip-rule="evenodd"/>
  <path id="svg_127" fill-rule="evenodd" fill="#CD3204" d="m205.164001,167.544006c0.612,-2.627991 0.324005,-3.563004 2.520004,-5.18399c2.26799,-1.656006 8.748001,-5.508011 9.972,-4.78801c1.223999,0.792007 0.251999,3.744003 -2.880005,9.036011c1.656006,2.194992 2.591995,3.888 2.807999,5.362991c0.143997,1.404007 -0.684006,2.412003 -1.800003,3.167999c-1.188004,0.612 -3.491989,1.152008 -5.112,0.792007c-1.727997,-0.396011 -3.419998,-1.619003 -5.076004,-3.384003c0,0.000992 -1.043991,-2.33902 -0.431992,-5.003006z" clip-rule="evenodd"/>
  <path id="svg_128" fill-rule="evenodd" fill="#DA4100" d="m213.408005,166.175995c0.863998,-0.396011 1.187988,-1.439011 1.655991,-2.59201c0.468002,-1.259995 1.728012,-3.814987 1.152008,-4.175995c-0.755997,-0.360001 -3.852005,1.548004 -5.255997,2.376007c-1.584,0.755997 -2.952011,1.727997 -3.276001,2.375992c-0.360001,0.612 0.720001,0.792007 1.692001,1.223999c1.007996,0.396011 2.951996,0.93602 4.031998,0.792007z" clip-rule="evenodd"/>
  <path id="svg_129" fill-rule="evenodd" fill="#DA4100" d="m212.472,167.255997c-0.936005,-0.576004 -3.600006,-1.188004 -4.643997,-0.720001c-1.044006,0.28801 -1.62001,1.764008 -1.584,2.916c-0.072006,1.115997 0.360001,3.059998 1.440002,3.888c0.972,0.721008 3.491989,0.684998 4.787994,0.576004c1.259995,-0.180008 2.447998,-1.080002 2.591995,-1.584c-0.143997,-0.647003 -2.123993,-1.367996 -2.591995,-2.160004c-0.468002,-1.007996 0.684006,-2.304001 0,-2.916z" clip-rule="evenodd"/>
  <path id="svg_130" fill-rule="evenodd" fill="#F2C802" d="m77.508003,157.464005c-2.664001,-0.647003 -5.040001,-1.584 -7.272003,-2.807999c-2.304001,-1.368011 -4.463997,-3.492004 -6.084,-4.860001c-1.728001,-1.475998 -2.484001,-3.02301 -3.779999,-3.384003c-1.476002,-0.360001 -2.592003,-0.684006 -4.176003,1.367996c-1.655998,2.124008 -3.815998,6.876007 -5.112,10.764008c-1.403999,3.600998 -2.484001,7.37999 -2.556,11.483994c-0.216,4.175995 0,9.179993 2.16,13.212006c2.16,3.888 6.624001,7.811996 10.764,10.115997c4.140003,2.231003 7.163998,2.664001 13.787998,3.384003c6.552002,0.539993 18.288002,0.431992 25.200005,0.251999c6.731995,-0.180008 11.124001,0.251999 15.515999,-1.477005c4.391998,-1.942993 8.171997,-6.011993 10.655998,-9.287003c2.412003,-3.384995 3.455994,-6.947998 3.528,-10.403992c-0.035995,-3.600998 -1.944,-7.524002 -3.779999,-10.368011c-2.015999,-2.770996 -5.832001,-4.607986 -7.559998,-6.479996c-1.728004,-2.087997 -2.808006,-3.384003 -2.700005,-5.543991c0,-2.231003 0.900002,-4.571014 2.844002,-7.416l0,-12.131012c-0.323997,-0.503998 -0.900002,-1.403992 -1.872002,-2.303986c-1.007996,-1.116013 -1.727997,-2.375992 -3.959999,-3.636002c-2.412003,-1.332001 -6.155998,-3.239998 -9.431999,-3.779999c-3.239998,-0.575996 -6.840004,-0.575996 -9.828003,0.396004c-3.239998,0.935997 -6.444,2.879997 -8.495995,5.147987c-2.016006,2.195999 -2.916,5.255997 -3.384003,7.811996c-0.540001,2.447998 -0.360001,4.320007 0.395996,6.73201c0.684006,2.304001 2.448006,5.436996 3.780006,7.307999c1.295998,1.692001 2.879997,2.483994 3.779999,3.491989c0.720001,0.973007 1.115997,2.053009 0.792,2.845001c-0.431999,0.720001 -1.368004,1.439011 -2.807999,1.619003c-1.440002,-0.070999 -4.284004,-0.720001 -5.903999,-1.115005c-1.728004,-0.325989 -3.276001,-0.685989 -4.5,-0.937988z" clip-rule="evenodd"/>
  <path id="svg_131" fill-rule="evenodd" fill="#D8A202" d="m52.056,157.391998c0,-1.188004 1.764,-4.570999 2.664001,-6.263992c0.827999,-1.764008 1.584,-3.20401 2.556,-3.779999c0.936001,-0.684006 1.439999,-1.008011 3.059998,0c1.476002,0.936996 3.924004,3.743988 6.084,5.508987c2.088005,1.548004 3.888,2.916 6.660004,4.104004c2.699997,1.080002 8.459999,1.979996 9.647995,2.699997c1.008003,0.576004 -1.079994,1.188004 -3.203995,1.008011c-2.195999,-0.216003 -6.984001,-2.160004 -9.648003,-2.340012c-2.699997,-0.251999 -4.751999,1.440002 -6.444,0.792007c-1.835999,-0.792007 -3.023998,-4.248001 -4.104,-5.220001c-1.188,-1.080002 -1.691998,-1.619995 -2.483997,-0.936996c-0.828003,0.539993 -1.692001,3.888992 -2.448002,4.644989c-0.900002,0.719009 -2.375999,0.791 -2.34,-0.216995z" clip-rule="evenodd"/>
  <path id="svg_132" fill-rule="evenodd" fill="#D8A202" d="m70.487999,164.160004c0.792,-0.180008 6.767998,1.367996 11.700005,2.160004c4.859993,0.575989 13.211998,1.150986 17.567993,2.159988c4.248001,0.972 6.444,1.835999 8.100006,3.99501c1.475998,2.123993 1.799995,5.796997 1.115997,8.495987c-0.828003,2.521011 -2.807999,5.400009 -5.543999,6.984009c-2.952003,1.511993 -6.588005,2.195999 -11.052002,2.052002c-4.5,-0.28801 -14.400002,-3.275009 -15.515999,-3.671997c-1.080002,-0.540009 5.003998,0.863998 8.928001,0.899994c3.743996,-0.035995 10.584,0.503998 13.860001,-0.899994c3.276001,-1.512009 5.183998,-5.724014 5.723999,-7.920013c0.360001,-2.339996 -1.043999,-4.175995 -3.384003,-5.651993c-2.447998,-1.548004 -6.767998,-2.231003 -10.872002,-3.167999c-4.248001,-0.936005 -10.512001,-1.654999 -13.931999,-2.447006c-3.456001,-1.007996 -7.631996,-2.878998 -6.695999,-2.987991z" clip-rule="evenodd"/>
  <path id="svg_133" fill-rule="evenodd" fill="#D8A202" d="m99.540001,124.307999c2.195999,-0.108002 4.356003,0.324005 6.479996,0.900002c2.088005,0.575996 4.140007,1.403999 6.156006,2.879997c1.871994,1.404007 4.751999,3.779999 5.723999,5.76001c0.900002,1.944 -0.071999,3.959991 0,6.047989c0,1.979004 0.071999,3.99501 0.215996,6.048004c-1.007996,0.972 -1.764,2.123993 -2.267998,3.600006c-0.503998,1.511993 -1.152,3.203995 -0.828003,4.931992c0.144005,1.477005 0.540001,2.412003 2.160004,4.212997c1.620003,1.800003 7.272003,5.363007 7.379997,6.119003c-0.143997,0.540009 -5.652,-0.862991 -7.776001,-2.556c-2.159996,-1.800003 -3.455994,-6.048004 -5.147995,-7.595993c-1.908005,-1.584 -5.328003,-0.036011 -5.543999,-1.62001c-0.108002,-1.728989 3.383995,-5.291992 4.643997,-8.207993c1.152,-3.024002 2.304001,-6.839996 2.052002,-9.360001c-0.576004,-2.520004 -2.736,-4.932007 -4.536003,-5.723999c-1.764,-0.936005 -4.103996,0.755997 -6.047997,0.503998c-2.052002,-0.432007 -5.508003,-1.152008 -5.940002,-2.160004c-0.431999,-1.007996 0.612,-2.267998 3.276001,-3.779999z" clip-rule="evenodd"/>
  <path id="svg_134" fill-rule="evenodd" fill="#CD3204" d="m117.396004,138.671997c-0.18,-1.332001 -0.828003,-2.87999 -0.828003,-3.815994c-0.071999,-0.936005 0.288002,-1.656006 0.935997,-1.727997c0.648003,-0.144012 1.908005,0.539993 2.952003,0.935989c0.972,0.216003 1.692001,0.972 2.987999,0.900009c1.223999,-0.143997 3.096001,-1.800003 4.211998,-1.62001c0.935997,0.072006 1.476006,1.044006 1.620003,2.340012c0.072006,1.223999 0.503998,3.131989 -1.332001,5.039993c-2.052002,1.729004 -8.351997,5.652008 -10.152,5.940002c-1.764,0.216003 -0.503998,-3.024002 -0.503998,-4.320007c-0.144005,-1.403992 0.215996,-2.483994 0.108002,-3.671997z" clip-rule="evenodd"/>
  <path id="svg_135" fill-rule="evenodd" fill="#DA4100" d="m120.671997,136.296005c0.612,-0.287994 1.548004,0.180008 2.664001,0c1.008003,-0.32399 2.807999,-1.727997 3.599998,-1.440002c0.756004,0.252014 1.692009,1.512009 0.720001,3.096008c-1.187996,1.475998 -5.867996,5.076004 -7.379997,5.938995c-1.440002,0.684998 -2.195999,-0.431992 -1.872002,-1.11499c0.216003,-0.756012 2.304001,-2.124008 2.664001,-2.988007c0.071999,-0.972 -1.403999,-1.800003 -1.512001,-2.339996c-0.071999,-0.576019 0.396004,-1.008011 1.115997,-1.152008z" clip-rule="evenodd"/>
  <path id="svg_136" fill-rule="evenodd" fill="#FFFFFF" d="m106.620003,130.528c2.225998,0 4.031998,1.951004 4.031998,4.356003c0,2.403992 -1.806,4.356003 -4.031998,4.356003c-2.226006,0 -4.032005,-1.952011 -4.032005,-4.356003c0,-2.404999 1.806,-4.356003 4.032005,-4.356003" clip-rule="evenodd"/>
  <path id="svg_137" fill-rule="evenodd" d="m107.099998,131.727997c1.312004,0 2.375999,1.145004 2.375999,2.556c0,1.411011 -1.063995,2.556 -2.375999,2.556c-1.311996,0 -2.375999,-1.144989 -2.375999,-2.556c0,-1.410995 1.064003,-2.556 2.375999,-2.556" clip-rule="evenodd"/>
  <path id="svg_138" fill-rule="evenodd" fill="#FFFFFF" d="m107.220001,133.468002c0.457001,0 0.827995,0.418991 0.827995,0.936005c0,0.516998 -0.370995,0.935989 -0.827995,0.935989s-0.828003,-0.418991 -0.828003,-0.935989c0,-0.517014 0.371002,-0.936005 0.828003,-0.936005" clip-rule="evenodd"/>
  <path id="svg_139" fill-rule="evenodd" fill="#FFE42E" d="m88.559998,132.695999c-1.655998,0.972 -2.339996,3.276001 -2.339996,5.255997c-0.144005,1.908005 -0.071999,6.084 1.619995,6.156006c1.548004,-0.072006 6.480003,-4.501007 7.992004,-6.479996c1.295998,-2.124008 1.620003,-5.040009 0.431999,-5.832001c-1.332001,-0.792007 -5.975998,-0.216003 -7.704002,0.899994z" clip-rule="evenodd"/>
  <path id="svg_140" fill-rule="evenodd" fill="#FFE42E" d="m91.440002,153.684998c0.827995,-0.035995 2.663994,1.331009 4.931999,1.764008c2.124001,0.358994 7.416,-0.072006 8.099998,0.503998c0.540001,0.503998 -1.907997,1.763992 -4.428001,2.664001c-2.664001,0.863998 -9.431999,2.375992 -10.872002,2.447998c-1.475998,-0.035995 2.124001,-1.367996 2.484001,-2.341003c0.288002,-1.078995 -0.288002,-2.664001 -0.323997,-3.490997c-0.036003,-0.865005 -0.828003,-1.656998 0.108002,-1.548004z" clip-rule="evenodd"/>
  <path id="svg_141" fill-rule="evenodd" fill="#FFE42E" d="m54.396,165.276001c-0.360001,0.791992 1.043999,5.688004 2.268002,7.595993c1.188,1.764008 3.599998,3.924011 4.716,3.708008c1.043999,-0.251999 1.98,-3.311996 1.548,-4.716003c-0.648003,-1.548004 -3.168003,-2.809006 -4.644001,-3.923996c-1.439999,-1.223999 -3.708,-3.456009 -3.888,-2.664001z" clip-rule="evenodd"/>
  <path id="svg_142" fill-rule="evenodd" fill="#FFE42E" d="m80.136002,170.639999c-0.431999,-0.432007 -2.664001,-0.395996 -4.608002,-0.720001c-2.052002,-0.539993 -5.688004,-2.375992 -6.875999,-2.160004s-1.835999,2.195999 -0.288002,3.167999c1.440002,0.757004 6.912003,1.836014 8.928001,1.836014c1.907997,-0.035004 3.132004,-1.764008 2.844002,-2.124008z" clip-rule="evenodd"/>
  <path id="svg_143" fill-rule="evenodd" fill="#FFE42E" d="m79.127998,175.104004c-0.360001,-0.396011 -2.304001,-0.036011 -3.888,-0.181c-1.764,-0.28801 -4.931999,-1.403 -5.903999,-1.115997c-0.972,0.287994 -1.332001,2.016998 0.036003,2.663986c1.260002,0.540009 5.867996,0.864014 7.596001,0.685013c1.547997,-0.28801 2.447998,-1.764008 2.159996,-2.052002z" clip-rule="evenodd"/>
  <path id="svg_144" fill-rule="evenodd" fill="#FFE42E" d="m79.704002,179.927994c-0.468002,-0.359009 -2.088005,0.035995 -3.744003,-0.070999c-1.620003,-0.145004 -4.751999,-1.404007 -5.652,-1.009003c-1.007996,0.251999 -1.152,1.944 0.108002,2.556992c1.152,0.432007 5.652,0.756012 7.236,0.540009c1.475998,-0.324997 2.304001,-1.692993 2.052002,-2.016998z" clip-rule="evenodd"/>
  <path id="svg_145" fill-rule="evenodd" fill="#D8A202" d="m108.683998,195.947998c1.692001,-0.035995 3.924004,-0.576004 6.155998,-1.224991c1.980003,-0.863007 4.464005,-2.268005 6.336006,-3.779007c1.799995,-1.619995 3.635994,-3.636993 4.931999,-5.759995c1.223999,-2.160004 2.375992,-4.78801 2.772003,-7.057007c0.251999,-2.339996 0.071991,-5.255997 -0.828003,-6.804001c-0.936005,-1.548004 -2.772003,-2.483994 -4.391998,-2.951996c-1.764,-0.863998 -5.328003,-1.908005 -5.436005,-1.044006c0,1.044006 4.571999,4.5 5.112,6.768005c0.288002,2.123993 -2.627998,3.815994 -2.771996,5.761002c-0.144005,1.763992 2.519997,3.490997 1.871994,5.328003c-0.792,1.906998 -4.068001,4.858994 -6.479996,5.938995c-2.556,0.863998 -7.307999,-0.503998 -8.424004,-0.072006c-1.152,0.469009 2.124001,1.692001 1.764,2.557007c-0.431999,0.791992 -4.32,1.438995 -4.32,1.942993c-0.143997,0.325012 2.015999,0.505005 3.708,0.397003z" clip-rule="evenodd"/>
 </g>
</svg>