<?xml version="1.0" encoding="UTF-8" standalone="no"?>
<!-- Created with Inkscape (http://www.inkscape.org/) -->

<svg
   xmlns:dc="http://purl.org/dc/elements/1.1/"
   xmlns:cc="http://creativecommons.org/ns#"
   xmlns:rdf="http://www.w3.org/1999/02/22-rdf-syntax-ns#"
   xmlns:svg="http://www.w3.org/2000/svg"
   xmlns="http://www.w3.org/2000/svg"
   xmlns:sodipodi="http://sodipodi.sourceforge.net/DTD/sodipodi-0.dtd"
   xmlns:inkscape="http://www.inkscape.org/namespaces/inkscape"
   id="svg3141"
   version="1.1"
   inkscape:version="0.48.1 "
   width="767.5"
   height="767.5"
   xml:space="preserve"
   sodipodi:docname="immigration2.pdf"><metadata
     id="metadata3147"><rdf:RDF><cc:Work
         rdf:about=""><dc:format>image/svg+xml</dc:format><dc:type
           rdf:resource="http://purl.org/dc/dcmitype/StillImage" /><dc:title></dc:title></cc:Work></rdf:RDF></metadata><defs
     id="defs3145" /><sodipodi:namedview
     pagecolor="#ffffff"
     bordercolor="#666666"
     borderopacity="1"
     objecttolerance="10"
     gridtolerance="10"
     guidetolerance="10"
     inkscape:pageopacity="0"
     inkscape:pageshadow="2"
     inkscape:window-width="640"
     inkscape:window-height="480"
     id="namedview3143"
     showgrid="false"
     inkscape:zoom="0.37915309"
     inkscape:cx="383.75"
     inkscape:cy="383.75"
     inkscape:window-x="510"
     inkscape:window-y="114"
     inkscape:window-maximized="0"
     inkscape:current-layer="g3149" /><g
     id="g3149"
     inkscape:groupmode="layer"
     inkscape:label="immigration2"
     transform="matrix(1.25,0,0,-1.25,0,767.5)"><g
       id="g3151"
       transform="scale(0.24,0.24)"><path
         d="m 346.25,2481.25 c -171.895,-0.04 -268.7109,-89.08 -269,-271 l 0,-1876 c 0.2891,-169.703 87.332,-258.8086 259,-259 l 1884,0 c 171.95,0.1914 259.13,84.859 259,259 l 0,1876 c 0.13,177.48 -87.05,270.96 -265,271 0,0 -1868.262,0.56 -1868,0"
         style="fill:#000000;fill-opacity:1;fill-rule:nonzero;stroke:none"
         id="path3153" /><path
         d="m 346.25,2481.25 c -171.895,-0.04 -268.7109,-89.08 -269,-271 l 0,-1876 c 0.2891,-169.703 87.332,-258.8086 259,-259 l 1884,0 c 171.95,0.1914 259.13,84.859 259,259 l 0,1876 c 0.13,177.48 -87.05,270.96 -265,271 0,0 -1868.262,0.56 -1868,0 z"
         style="fill:none;stroke:#ffffff;stroke-opacity:1;stroke-width:14.2;stroke-linecap:butt;stroke-linejoin:miter;stroke-miterlimit:10;stroke-dasharray:none"
         id="path3155" /><path
         d="m 549.25,1971.25 287,0 c 39.434,-0.04 71.086,-25.93 71,-62 l 0,-298 c 0.086,-43.72 -15.73,-69.36 -65,-69 l -24,0 0,-112 c 0.125,-37.54 -29.543,-62.54 -58,-42 l -211,166 0,417"
         style="fill:#ffffff;fill-opacity:1;fill-rule:nonzero;stroke:none"
         id="path3157" /><path
         d="m 1236.25,1282.25 0,-438 480,636 -486,0 c -63.27,0.04 -104.11,-27.55 -142,-74 l -156,-209 -222,177 c -102.996,75.96 -218.625,-71.69 -119,-149 l 292,-230 c 61.758,-45.062 111.758,-25.273 139,2 l 214,285"
         style="fill:#ffffff;fill-opacity:1;fill-rule:nonzero;stroke:none"
         id="path3159" /><path
         d="m 1211.25,2052.25 525,0 0,-147 -424,0 -101,147"
         style="fill:#ffffff;fill-opacity:1;fill-rule:nonzero;stroke:none"
         id="path3161" /><path
         d="m 1737.25,1859.25 -421,0 -85,-107 100,0 c -0.43,-118.18 92.57,-201.21 201,-201 104.68,-0.21 205.42,82.82 205,205 l 0,103"
         style="fill:#ffffff;fill-opacity:1;fill-rule:nonzero;stroke:none"
         id="path3163" /><path
         d="m 1836.25,1478.25 c 55.87,-0.12 136.82,-28.66 137,-151 l 0,-835 -736,0 0,226 536,0 0,104 -425,0 488,656"
         style="fill:#ffffff;fill-opacity:1;fill-rule:nonzero;stroke:none"
         id="path3165" /><path
         d="m 628.25,1927.25 210,0 c 11.754,0.04 27.57,-7.95 28,-24 l 0,-295 c -0.43,-14.44 -10.312,-24.43 -24,-24 l -24,0 0,171 c 0.125,18.27 -3.832,38.25 -30,58 l -160,114"
         style="fill:#000000;fill-opacity:1;fill-rule:nonzero;stroke:none"
         id="path3167" /></g></g></svg>